<svg xmlns="http://www.w3.org/2000/svg" xmlns:xlink="http://www.w3.org/1999/xlink" version="1.1" x="0px" y="0px" viewBox="0 0 100 100" enable-background="new 0 0 100 100" xml:space="preserve"><g><g><g><path fill="#000000" d="M34.981,55.945L4.603,75.131c-3.52,2.67-2.82,4.396-1.653,4.252l0,0     c0,0,21.851-13.312,24.325-14.252c2.259,0.469,5.713-0.143,5.713-0.143l-1.235,1.395c-2.197,2.482-1.532,3.376,1.485,1.998     l1.366-0.623c0,0-0.75,1.969,1.294,1.113c2.134-0.674,7.279-5.053,11.084-5.916l4.932,11.924     c0.215,0.512,0.116,1.291-0.214,1.721c0,0-1.018,1.395-2.323,2.77s0.546,2.508,0.546,2.508s1.614,1.51,2.013,0.936     c0.399-0.573-0.735-1.958-0.685-2.847c0.053-0.89,1.053-1.669,1.053-1.669l1.875-0.994c0,0,1.775,0.26,2.746-0.764     c-2.041-0.605-3.441-2.359-3.441-2.359s-4.499-8.876-4.724-10.852c6.83,0.889,4.829,0.598,7.55,0.71     c7.52,4.655,12.764,9.193,12.764,9.193l-1.035,4.596c0,0,0.086,1.421,1.219,1.556c1.21-0.362,2.692-1.556,2.692-1.556     s0.642-0.136-1.174,0c0-3.447,1.499-4.897,1.499-4.897l1.703-0.44c1.604-0.415,1.562-0.751-0.092-0.751h-3.881l-11.574-7.7     c0,0,25.498-3.182,25.775-28.932c-4.4-15.878-0.315-16.743,1.042-18.208c3.181-1.797,3.881-2.067,5.634-3.346     c-2.146,0.57-0.722,0.135-7.613,2.059C84.508,13.817,88.432,8,88.432,8s-2.834,1.588-6.812,4.021     c-4.168-2.433-22.519-2.805-20.605,20.169C61.026,32.633,37.103,51.889,34.981,55.945z"></path><path fill="#000000" d="M97.178,70.129l-21.17,1.441l-20.951,5.301l-22.04,5.576c0,0-15.696,9.289-19.192,12.115     c-1.885,5.441,3.718,3.225,3.718,3.225l18.244-11.408c0,0,30.425-7.552,36.316-8.604c10.295-3.618,22.93-3.992,25.543-4.119     C100.995,71.018,97.178,70.129,97.178,70.129z"></path></g></g></g></svg>