<svg xmlns="http://www.w3.org/2000/svg" xmlns:xlink="http://www.w3.org/1999/xlink" xml:space="preserve" version="1.1" style="shape-rendering:geometricPrecision;text-rendering:geometricPrecision;image-rendering:optimizeQuality;" viewBox="0 0 400 400" x="0px" y="0px" fill-rule="evenodd" clip-rule="evenodd"><defs><style type="text/css">
   
    .fil0 {fill:#1A1A1A}
   
  </style></defs><g><g><path class="fil0" d="M139 220c8,-1 12,-4 12,-13l-8 0 -4 13zm164 -104c0,-16 -13,-29 -30,-29 -16,0 -29,13 -29,29 0,16 13,29 29,29 17,0 30,-13 30,-29zm-173 79l0 -8c0,-4 1,-7 3,-11 3,-5 5,-9 -6,-15l3 -4c14,8 11,14 7,21 -1,3 -3,6 -3,9l0 8 -4 0zm-13 0l0 -8c0,-4 2,-7 4,-11 2,-5 4,-9 -6,-15l2 -4c14,8 11,14 8,21 -2,3 -3,6 -3,9l0 8 -5 0zm71 -75c-1,5 -3,9 -6,12 -4,4 -9,6 -15,6 -5,0 -10,-2 -14,-6l0 0c-3,-3 -5,-7 -6,-12l-26 0 0 -9 41 -40 0 -27 10 0 0 27 41 40 0 9 -25 0zm-31 0c0,2 1,4 3,6l0 0c2,2 4,3 7,3 3,0 6,-1 8,-3 2,-2 3,-4 3,-6l-21 0zm-48 80l34 0 0 7 0 3c0,4 -2,7 -4,10 -2,3 -4,5 -8,6l65 0 23 0 0 23 25 -7c0,0 7,-2 7,-10l0 -43 -16 30 -56 0c-7,0 -12,-5 -12,-12 0,-6 5,-12 12,-12l40 0 11 -21c4,-10 14,-17 25,-17 0,0 1,0 2,0l21 0c0,0 0,0 1,0l57 0 27 49c3,6 1,13 -5,16 -5,3 -13,1 -16,-4l-9 -17 -9 87 0 2 0 65 -17 0 0 -65 -59 0 0 65 -17 0 0 -65 0 -10 -12 1 0 74 -23 0 0 -56 -35 49 0 0c-3,4 -7,7 -12,7 -8,0 -15,-7 -15,-15 0,-3 1,-6 3,-9l0 0 50 -70 0 0c2,-3 5,-5 9,-5l0 -7 -105 0c0,123 0,99 0,106l-24 0c0,-43 0,-86 0,-129l24 0 29 0c-7,-2 -11,-9 -11,-16l0 -10zm195 -17l14 0 -10 90 -25 0c9,0 16,-5 19,-12 1,-2 2,-5 2,-8l0 -69c0,-1 0,-1 0,-1z"></path></g></g></svg>