<svg xmlns="http://www.w3.org/2000/svg" xmlns:xlink="http://www.w3.org/1999/xlink" version="1.0" x="0px" y="0px" viewBox="0 0 50 50" enable-background="new 0 0 50 50" xml:space="preserve"><g><path fill="#000000" d="M20.254,32.032"></path><path fill="#000000" d="M22.197,35.294c-1.639-2.277-1.529-6.726,4.196-12.328c-0.5,4.031,2.908,7.287,2.473,10.174   c-0.193,1.258-0.652,2.176-1.25,2.799c2.449-0.775,4.561-3.104,5.191-7.283c0.869-5.73-5.896-12.196-4.904-20.195   C13.992,22.073,16.789,32.25,22.197,35.294z"></path><path fill="#000000" d="M25.326,37c-3.87-2-3.133-6.66-0.002-10.152c-0.332,2.67,2.033,4.337,2.068,6.667   C27.408,34.698,26.625,37,25.572,37H25.326z"></path><g><path fill="#000000" d="M29.203,4.169C26.115,14.901,34.65,20.61,33.631,28.2c1.912-2.123,1.234-10.029-0.396-13.098    C31.945,12.681,29.514,9.458,29.203,4.169z"></path><path fill="#000000" d="M21.45,35.446c0,0-7.568-2.526-7.979-9.246c-0.355-5.785,7.651-11.098,7.651-11.098    S11.085,28.517,21.45,35.446z"></path></g><path fill="#000000" d="M36.074,41.896c-0.084-0.027-0.172-0.04-0.26-0.04c-0.625,0-1.301,0.651-1.6,1.597   c-0.34,1.076-0.059,2.123,0.629,2.34c0.084,0.027,0.172,0.039,0.258,0.039c0.627,0,1.301-0.65,1.6-1.594   C37.041,43.159,36.76,42.112,36.074,41.896z"></path><path fill="#000000" d="M14.187,41.855c-0.089,0-0.176,0.013-0.26,0.04c-0.688,0.217-0.969,1.264-0.628,2.342   c0.298,0.943,0.975,1.594,1.599,1.594c0.089,0,0.176-0.012,0.26-0.039c0.688-0.217,0.969-1.264,0.628-2.342   C15.488,42.507,14.811,41.855,14.187,41.855z"></path><path fill="#000000" d="M33.615,45.086c-0.145-0.542-0.119-1.181,0.078-1.799c0.242-0.769,0.705-1.382,1.244-1.712l-3.807-1.292   l4.715-1.601c0.77-0.26,1.182-1.098,0.922-1.869l-0.295-0.87c-0.264-0.771-1.098-1.183-1.869-0.923l-9.492,3.221l-9.493-3.221   c-0.77-0.26-1.606,0.151-1.868,0.923l-0.294,0.87c-0.263,0.771,0.149,1.609,0.92,1.869l4.716,1.601l-3.951,1.341   c0.506,0.34,0.935,0.932,1.165,1.662c0.234,0.74,0.218,1.464,0.002,2.025l8.803-2.986l8.549,2.9   C33.645,45.181,33.627,45.135,33.615,45.086z"></path></g></svg>