<svg xmlns="http://www.w3.org/2000/svg" xmlns:xlink="http://www.w3.org/1999/xlink" version="1.1" x="0px" y="0px" viewBox="0 0 100 100" enable-background="new 0 0 100 100" xml:space="preserve"><g><path fill="#000000" d="M2.075,87.828h18.397V47.354H2.075V87.828z M13.113,54.716h3.68v3.677h-3.68V54.716z M13.113,62.073h3.68   v3.679h-3.68V62.073z M13.113,69.432h3.68v3.68h-3.68V69.432z M13.113,76.79h3.68v3.68h-3.68V76.79z M5.753,54.716h3.68v3.677   h-3.68V54.716z M5.753,62.073h3.68v3.679h-3.68V62.073z M5.753,69.432h3.68v3.68h-3.68V69.432z M5.753,76.79h3.68v3.68h-3.68V76.79   z"></path><path fill="#000000" d="M79.911,54.801v33.027h18.397V54.801H79.911z M87.271,80.56h-3.68v-3.681h3.68V80.56z M87.271,73.199h-3.68   v-3.678h3.68V73.199z M87.271,65.841h-3.68v-3.679h3.68V65.841z M94.627,80.56H90.95v-3.681h3.677V80.56z M94.627,73.199H90.95   v-3.678h3.677V73.199z M94.627,65.841H90.95v-3.679h3.677V65.841z"></path><path fill="#000000" d="M73.306,13.855h-8.389L58.871,12v39.368v1.104v35.381h18.396V52.473v-1.104V17.645l-3.962-1.216V13.855z    M66.231,80.495h-3.681v-3.68h3.681V80.495z M66.231,73.137h-3.681v-3.68h3.681V73.137z M66.231,65.775h-3.681v-3.677h3.681V65.775   z M66.231,58.419h-3.681v-3.68h3.681V58.419z M66.231,50.76h-3.681v-3.68h3.681V50.76z M66.231,43.401h-3.681v-3.679h3.681V43.401z    M66.231,36.042h-3.681v-3.68h3.681V36.042z M66.231,28.683h-3.681v-3.679h3.681V28.683z M73.59,80.495h-3.681v-3.68h3.681V80.495z    M73.59,73.137h-3.681v-3.68h3.681V73.137z M73.59,65.775h-3.681v-3.677h3.681V65.775z M73.59,58.419h-3.681v-3.68h3.681V58.419z    M73.59,50.76h-3.681v-3.68h3.681V50.76z M73.59,43.401h-3.681v-3.679h3.681V43.401z M73.59,36.042h-3.681v-3.68h3.681V36.042z    M73.59,25.004v3.679h-3.681v-3.679H73.59z"></path><path fill="#000000" d="M48.87,54.756v-10.94l-3.679-7.358h-3.68v-4.348h-3.679v4.348h-3.687l-3.672,7.358v10.94h-3.68l-3.68,3.776   V87.97h33.116V58.532l-3.68-3.776H48.87z M41.511,43.815h3.68v3.68h-3.68V43.815z M34.153,43.815h3.679v3.68h-3.679V43.815z    M34.153,80.612h-3.68v-3.681h3.68V80.612z M34.153,73.252h-3.68v-3.679h3.68V73.252z M34.153,65.894h-3.68v-3.681h3.68V65.894z    M34.153,51.175h3.679v3.679h-3.679V51.175z M41.511,80.612h-3.679v-3.681h3.679V80.612z M41.511,73.252h-3.679v-3.679h3.679   V73.252z M41.511,65.894h-3.679v-3.681h3.679V65.894z M41.511,51.175h3.68v3.679h-3.68V51.175z M48.87,80.612h-3.679v-3.681h3.679   V80.612z M48.87,73.252h-3.679v-3.679h3.679V73.252z M48.87,65.894h-3.679v-3.681h3.679V65.894z"></path><path fill="#000000" d="M27.839,51.271v-1.312h-1.776v-3.679h1.776V43.05l0.227-0.452h-2.003v-3.679h3.838l0.021,0.001l3.155-6.323   l0.503-1.007v-7.707l-18.555,4.437v16.5h8.079l0,9.85l3.363-3.4H27.839z M26.063,31.56h3.679v3.68h-3.679V31.56z M22.384,42.599   h-3.679v-3.679h3.679V42.599z M22.384,35.24h-3.679v-3.68h3.679V35.24z"></path></g></svg>