<?xml version="1.0" encoding="UTF-8" standalone="no"?>
<svg
   xmlns:dc="http://purl.org/dc/elements/1.1/"
   xmlns:cc="http://creativecommons.org/ns#"
   xmlns:rdf="http://www.w3.org/1999/02/22-rdf-syntax-ns#"
   xmlns:svg="http://www.w3.org/2000/svg"
   xmlns="http://www.w3.org/2000/svg"
   xmlns:sodipodi="http://sodipodi.sourceforge.net/DTD/sodipodi-0.dtd"
   xmlns:inkscape="http://www.inkscape.org/namespaces/inkscape"
   version="1.1"
   x="0px"
   y="0px"
   viewBox="-0.001 15 100 70"
   enable-background="new -0.001 15 100 70"
   xml:space="preserve"
   id="svg2"
   inkscape:version="0.48.5 r10040"
   width="100%"
   height="100%"
   sodipodi:docname="cloudy_noun_13515.svg"><metadata
     id="metadata28"><rdf:RDF><cc:Work
         rdf:about=""><dc:format>image/svg+xml</dc:format><dc:type
           rdf:resource="http://purl.org/dc/dcmitype/StillImage" /></cc:Work></rdf:RDF></metadata><defs
     id="defs26" /><sodipodi:namedview
     pagecolor="#ffffff"
     bordercolor="#666666"
     borderopacity="1"
     objecttolerance="10"
     gridtolerance="10"
     guidetolerance="10"
     inkscape:pageopacity="0"
     inkscape:pageshadow="2"
     inkscape:window-width="1191"
     inkscape:window-height="970"
     id="namedview24"
     showgrid="false"
     inkscape:zoom="6"
     inkscape:cx="50"
     inkscape:cy="35"
     inkscape:window-x="0"
     inkscape:window-y="0"
     inkscape:window-maximized="0"
     inkscape:current-layer="svg2" /><polygon
     points="6.062,30.094 6.062,30.094 6.062,30.094 "
     id="polygon12"
     transform="translate(-10,-12)" /><path
     d="m 74.811,42.656 c -1.203,0 -2.334,0.197 -3.437,0.469 C 69.227,35.166 62.061,29.25 53.437,29.25 c -3.692,0 -7.108,1.081 -10,2.938 -4.966897,-5.381289 -8.746711,-7.792667 -16.407,-7.626 -7.660289,0.166667 -15.145334,7.356834 -15.312,15.407 -0.166666,8.050166 3.026467,12.616763 8.531,16.75 -3.104,1.594 -5.25,4.819 -5.25,8.531 0,2.641 1.214,4.854 3.062,6.094 1.508,1.012 3.31,1.457 5.219,1.594 l 0,0.062 1.313,0 1.812,0 22.75,0 13.375,0 12.281,0 c 8.363,0 15.188,-6.823 15.188,-15.188 0,-8.365 -6.824,-15.156 -15.188,-15.156 z m 0,26.782 -12.282,0 -13.375,0 -24.561,0 c -1.933,0 -3.553,-0.405 -4.532,-1.062 -0.978,-0.657 -1.5,-1.449 -1.5,-3.125 0,-3.348 2.681,-6.031 6.032,-6.031 0.554,0 1.13,0.126 1.75,0.312 l 2.281,0.688 0,-2.406 0,-0.188 c 0,-4.066 3.246,-7.312 7.313,-7.312 -0.059,0 0.097,0.035 0.5,0.062 l 2,0.125 -0.094,-2 C 38.321,48.013 38.28,47.855 38.28,47.97 c 0,-8.384 6.767,-15.157 15.158,-15.157 7.564,0 13.762,5.572 14.905,12.813 L 68.655,47.782 70.718,47 c 1.3,-0.493 2.669,-0.781 4.093,-0.781 6.437,0 11.627,5.159 11.627,11.594 0,6.435 -5.192,11.625 -11.627,11.625 z"
     id="path14"
     inkscape:connector-curvature="0"
     sodipodi:nodetypes="scsczzcscccccccssssccscsscccscccccscccsss" /></svg>