<svg xmlns="http://www.w3.org/2000/svg" xmlns:xlink="http://www.w3.org/1999/xlink" version="1.1" x="0px" y="0px" viewBox="0 0 69.1 97.9" enable-background="new 0 0 69.1 97.9" xml:space="preserve"><path d="M47.3,12.8c0-7-5.7-12.8-12.8-12.8S21.8,5.7,21.8,12.8l0,0v51.2c-3.3,0-6-2.7-6-6l0,0V34.6c0-4.4-3.5-7.9-7.9-7.9   c-4.4,0-7.9,3.5-7.9,7.9l0,0v23.3c0,12,9.8,21.8,21.8,21.8l0,0v18.2h25.5V72c12,0,21.8-9.8,21.8-21.8l0,0V34.6   c0-4.4-3.5-7.9-7.9-7.9c-4.4,0-7.9,3.5-7.9,7.9l0,0v15.6c0,3.3-2.7,6-6,6l0,0V12.8z"></path></svg>