<?xml version="1.0" encoding="UTF-8" standalone="no"?>
<svg
   xmlns:dc="http://purl.org/dc/elements/1.1/"
   xmlns:cc="http://creativecommons.org/ns#"
   xmlns:rdf="http://www.w3.org/1999/02/22-rdf-syntax-ns#"
   xmlns:svg="http://www.w3.org/2000/svg"
   xmlns="http://www.w3.org/2000/svg"
   xmlns:sodipodi="http://sodipodi.sourceforge.net/DTD/sodipodi-0.dtd"
   xmlns:inkscape="http://www.inkscape.org/namespaces/inkscape"
   version="1.1"
   x="0px"
   y="0px"
   viewBox="0 0 100 100"
   enable-background="new 0 0 100 100"
   xml:space="preserve"
   id="svg2"
   inkscape:version="0.48.5 r10040"
   width="100%"
   height="100%"
   sodipodi:docname="ltrain_noun_16235_lt.svg"><metadata
     id="metadata34"><rdf:RDF><cc:Work
         rdf:about=""><dc:format>image/svg+xml</dc:format><dc:type
           rdf:resource="http://purl.org/dc/dcmitype/StillImage" /></cc:Work></rdf:RDF></metadata><defs
     id="defs32" /><sodipodi:namedview
     pagecolor="#ffffff"
     bordercolor="#666666"
     borderopacity="1"
     objecttolerance="10"
     gridtolerance="10"
     guidetolerance="10"
     inkscape:pageopacity="0"
     inkscape:pageshadow="2"
     inkscape:window-width="640"
     inkscape:window-height="480"
     id="namedview30"
     showgrid="false"
     inkscape:zoom="2.36"
     inkscape:cx="50"
     inkscape:cy="50"
     inkscape:window-x="0"
     inkscape:window-y="0"
     inkscape:window-maximized="0"
     inkscape:current-layer="svg2" /><g
     id="g4"><path
       d="M42.401,65.839c-1.053-0.505-2.317-0.063-2.824,0.99l-3.28,6.809c-0.507,1.054-0.064,2.318,0.989,2.825   c0.295,0.143,0.608,0.211,0.917,0.211c0.787,0,1.543-0.442,1.908-1.199l3.279-6.81C43.896,67.612,43.454,66.348,42.401,65.839z"
       id="path12" /><path
       d="M30.596,90.355c-1.053-0.508-2.317-0.064-2.825,0.987l-0.781,1.622c-0.507,1.054-0.064,2.319,0.989,2.825   c0.296,0.143,0.608,0.21,0.917,0.21c0.787,0,1.543-0.441,1.907-1.198l0.782-1.621C32.092,92.126,31.65,90.862,30.596,90.355z"
       id="path14" /><path
       d="M48.659,79.567c-1.062-0.485-2.318-0.019-2.804,1.044l-1.887,4.124c-0.487,1.063-0.019,2.319,1.044,2.805   c0.285,0.13,0.584,0.191,0.879,0.191c0.803,0,1.57-0.458,1.926-1.235l1.887-4.124C50.189,81.31,49.722,80.055,48.659,79.567z"
       id="path16" /><path
       d="M67.535,65.822c-1.063-0.485-2.318-0.018-2.806,1.044l-3.145,6.873c-0.486,1.063-0.019,2.317,1.044,2.806   c0.285,0.13,0.584,0.191,0.879,0.191c0.803,0,1.57-0.459,1.927-1.236l3.144-6.872C69.065,67.564,68.597,66.309,67.535,65.822z"
       id="path20" /><path
       d="M78.375,34.487c-0.675,0-1.338,0.052-1.985,0.147c0.03-0.395,0.051-0.79,0.051-1.191c0-8.432-6.836-15.267-15.268-15.267   c-1.466,0-2.883,0.211-4.226,0.597C52,11.48,43.643,6.688,34.166,6.688c-15.194,0-27.511,12.317-27.511,27.511   c0,15.194,12.317,27.511,27.511,27.511h43.372c0.277,0.018,0.557,0.029,0.838,0.029C85.899,61.738,92,55.638,92,48.112   C92,40.589,85.899,34.487,78.375,34.487z"
       id="path28" /></g></svg>