<svg xmlns="http://www.w3.org/2000/svg" xmlns:xlink="http://www.w3.org/1999/xlink" version="1.1" x="0px" y="0px" viewBox="0 0 100 100" enable-background="new 0 0 100 100" xml:space="preserve"><g><g><polygon points="40.685,56.518 45.338,56.518 37.657,43.757 41.499,43.757 32.534,28.867 23.574,43.757 27.412,43.757     19.734,56.518 24.388,56.518 14.249,73.371 28.676,73.371 28.676,78.57 36.397,78.57 36.397,73.371 50.826,73.371   "></polygon><polygon points="100,63.156 92.373,50.484 95.873,50.484 90.098,40.891 92.982,40.891 86.244,29.693 79.507,40.891 82.393,40.891     76.619,50.484 80.116,50.484 72.494,63.156 83.346,63.156 83.346,67.066 89.146,67.066 89.146,63.156   "></polygon><polygon points="59.357,53.387 59.357,50.044 68.637,50.044 62.116,39.209 65.109,39.209 60.175,31.006 62.641,31.006     56.88,21.429 51.115,31.006 53.586,31.006 48.646,39.209 51.643,39.209 45.121,50.044 54.396,50.044 54.396,53.387   "></polygon><polygon points="69.193,67.208 71.527,67.208 67.68,60.816 69.604,60.816 65.113,53.354 60.623,60.816 62.546,60.816     58.698,67.208 61.029,67.208 55.951,75.648 63.182,75.648 63.182,78.255 67.046,78.255 67.046,75.648 74.271,75.648   "></polygon><polygon points="18.323,59.895 13.242,51.451 15.578,51.451 11.73,45.06 13.651,45.06 9.164,37.599 4.674,45.06 6.597,45.06     2.747,51.451 5.083,51.451 0,59.895 7.226,59.895 7.226,62.5 11.095,62.5 11.095,59.895   "></polygon></g></g></svg>