<svg xmlns="http://www.w3.org/2000/svg" xmlns:xlink="http://www.w3.org/1999/xlink" version="1.1" x="0px" y="0px" viewBox="0 0 100 100" enable-background="new 0 0 100 100" xml:space="preserve"><path d="M92.87,63.944H57.068V48.643h13.507c2.306,0,4.176-1.871,4.176-4.177l4.172-6.955c0-2.304-1.87-4.175-4.172-4.175H57.068  v-0.161l-2.55-7.487c0-1.225-0.468-2.056-1.067-2.625c0.066-0.165,0.132-0.335,0.203-0.5l-1.762-0.751  c-0.039,0.092-0.079,0.193-0.118,0.289c-0.608-0.198-1.084-0.238-1.084-0.238s-0.263,0.022-0.657,0.116  c-0.025-0.055-0.045-0.114-0.067-0.167l-1.759,0.751c0.029,0.066,0.051,0.141,0.078,0.208c-0.763,0.561-1.418,1.461-1.418,2.917  l-2.55,7.648l0,0H25.361c-2.303,0-4.171,1.871-4.171,4.175l4.519,6.955c0,2.306,1.871,4.177,4.176,4.177h14.432v15.302H7.239  C3.243,63.944,0,67.372,0,71.596l7.84,12.75c0,4.228,3.241,7.654,7.237,7.654h70.559c3.996,0,7.234-3.427,7.234-7.654l7.24-12.75  C100.11,67.372,96.867,63.944,92.87,63.944z M17.069,27.219l-1.84-0.515h-0.004c-0.23,0.831-0.437,1.673-0.62,2.535l1.867,0.405  C16.651,28.813,16.849,28.011,17.069,27.219z M27.833,11.387l-0.917-1.681c-0.774,0.421-1.528,0.917-2.253,1.478l1.17,1.513  C26.479,12.198,27.151,11.757,27.833,11.387z M24.024,14.307l-1.365-1.341c-0.608,0.616-1.189,1.283-1.75,1.997l1.509,1.18  C22.932,15.485,23.47,14.869,24.024,14.307z M16.016,32.093l-1.887-0.296c-0.132,0.85-0.247,1.712-0.331,2.584l1.902,0.192  C15.782,33.733,15.891,32.907,16.016,32.093z M18.714,22.526l-1.762-0.749c-0.339,0.787-0.655,1.602-0.943,2.438l1.805,0.63  C18.09,24.047,18.39,23.274,18.714,22.526z M46.018,14.997c-0.558-0.714-1.14-1.38-1.752-1.999l-1.364,1.336  c0.558,0.565,1.092,1.177,1.607,1.836L46.018,14.997z M21.002,18.151l-1.612-1.025c-0.465,0.721-0.903,1.485-1.315,2.277  l1.695,0.885C20.159,19.544,20.574,18.829,21.002,18.151z M47.151,20.323l1.697-0.882c-0.415-0.791-0.854-1.555-1.315-2.28  l-1.614,1.021C46.348,18.861,46.761,19.579,47.151,20.323z M37.521,8.646c-0.87-0.284-1.766-0.479-2.675-0.582L34.64,9.968  c0.775,0.086,1.54,0.253,2.288,0.495L37.521,8.646z M32.296,9.964l-0.194-1.903l0,0c-0.918,0.097-1.81,0.288-2.682,0.569l0.584,1.82  C30.756,10.209,31.517,10.049,32.296,9.964z M42.274,11.211c-0.727-0.561-1.479-1.06-2.254-1.484l-0.915,1.679  c0.678,0.372,1.348,0.812,1.996,1.318L42.274,11.211z M13.677,57.278l1.909-0.077c-0.03-0.787-0.054-1.633-0.077-2.529l-1.911,0.041  l0,0C13.618,55.618,13.646,56.472,13.677,57.278z M15.454,47.044v-0.62c0-0.627,0-1.267,0-1.927l-1.914-0.003l0,0  c0,0.661,0,1.303,0,1.93c0,0.212,0,0.418,0,0.623L15.454,47.044z M15.977,62.188c-0.101-0.742-0.188-1.564-0.249-2.473l-1.91,0.142  c0.069,0.939,0.156,1.801,0.265,2.592L15.977,62.188z M15.454,39.395c0-0.784,0.023-1.558,0.059-2.328l-1.91-0.093l0,0  c-0.039,0.799-0.058,1.607-0.058,2.421c0,0.874,0,1.724-0.005,2.551l1.914,0.003C15.454,41.118,15.454,40.269,15.454,39.395z   M13.544,49.6c0.003,0.889,0.007,1.741,0.015,2.552l1.914-0.016c-0.008-0.811-0.012-1.656-0.02-2.545L13.544,49.6z M85.384,29.64  l1.868-0.401c-0.182-0.862-0.39-1.705-0.618-2.53l-1.845,0.51C85.008,28.011,85.21,28.818,85.384,29.64z M88.317,44.494h-1.914  v2.553h1.914V44.494z M86.399,39.395c0,0.877,0,1.724,0,2.551h1.913c0-0.827,0-1.677,0-2.551c0-0.814-0.02-1.622-0.059-2.421  l-1.91,0.093C86.38,37.836,86.399,38.611,86.399,39.395z M85.842,32.093c0.125,0.814,0.232,1.641,0.317,2.48l1.904-0.192  c-0.089-0.873-0.203-1.735-0.331-2.58L85.842,32.093L85.842,32.093z M88.312,49.6l-1.913-0.009l0,0  c-0.005,0.889-0.008,1.734-0.017,2.541l1.914,0.02C88.306,51.341,88.311,50.488,88.312,49.6z M55.939,18.181l-1.616-1.024  c-0.464,0.729-0.896,1.49-1.308,2.284l1.696,0.882C55.096,19.579,55.511,18.861,55.939,18.181z M84.048,24.845l1.803-0.63  c-0.289-0.836-0.605-1.651-0.945-2.438l-1.758,0.752C83.467,23.274,83.768,24.047,84.048,24.845z M88.254,54.713l-1.91-0.041  c-0.018,0.896-0.042,1.742-0.075,2.529l1.913,0.077C88.212,56.472,88.238,55.618,88.254,54.713z M85.881,62.188l1.895,0.261  c0.108-0.791,0.194-1.652,0.265-2.598l-1.905-0.136C86.063,60.623,85.98,61.445,85.881,62.188z M82.092,20.288l1.69-0.885  c-0.412-0.792-0.849-1.552-1.313-2.277l-1.613,1.025C81.287,18.829,81.696,19.544,82.092,20.288z M62.756,11.402l-0.915-1.675  c-0.781,0.425-1.53,0.924-2.257,1.484l1.173,1.509C61.409,12.217,62.077,11.781,62.756,11.402z M58.956,14.334l-1.364-1.336  c-0.608,0.619-1.193,1.285-1.752,1.999l1.511,1.178C57.864,15.511,58.402,14.899,58.956,14.334z M67.217,9.968l-0.205-1.903  c-0.909,0.098-1.803,0.293-2.676,0.577l0.593,1.821C65.677,10.221,66.44,10.054,67.217,9.968z M80.943,14.966  c-0.553-0.714-1.141-1.38-1.749-2l-1.36,1.341c0.555,0.565,1.091,1.178,1.605,1.836L80.943,14.966z M72.438,8.63  c-0.869-0.281-1.765-0.475-2.679-0.569l-0.198,1.903c0.775,0.081,1.544,0.245,2.293,0.486L72.438,8.63z M77.194,11.184  c-0.725-0.557-1.475-1.052-2.253-1.478l-0.914,1.681c0.68,0.371,1.35,0.811,1.995,1.314L77.194,11.184z M74.027,11.387  L74.027,11.387L74.027,11.387L74.027,11.387z"></path></svg>