<svg xmlns="http://www.w3.org/2000/svg" xmlns:xlink="http://www.w3.org/1999/xlink" version="1.1" x="0px" y="0px" viewBox="0 0 100 100" enable-background="new 0 0 100 100" xml:space="preserve"><path fill-rule="evenodd" clip-rule="evenodd" d="M97.442,63.324L89.419,55.3c-0.589-0.588-3.48-0.967-4.855-0.67L66.864,36.928  l0.009-0.012c0.404-0.405,0.401-1.057,0-1.462l-0.871-0.871c-0.404-0.402-1.057-0.405-1.459,0l-2.417,2.415  c-0.402,0.402-0.402,1.057,0,1.462l0.873,0.868c0.402,0.405,1.058,0.405,1.462,0.003l0.012-0.012l10.114,10.114  c-4.791-1.646-16.854-5.527-24.158-5.527c-7.302,0-19.365,3.88-24.155,5.527l10.114-10.114l0.015,0.012  c0.402,0.402,1.054,0.402,1.462-0.003l0.868-0.868c0.405-0.405,0.405-1.06,0-1.462l-2.411-2.415c-0.405-0.405-1.061-0.402-1.462,0  l-0.871,0.871c-0.405,0.405-0.405,1.058-0.003,1.462l0.012,0.012L16.294,54.63c-1.369-0.297-4.264,0.082-4.852,0.67l-8.021,8.024  c-0.708,0.707-0.708,1.854,0,2.562l4.01,4.011c0.708,0.708,1.855,0.708,2.56,0l8.024-8.024c0.591-0.588,0.97-3.486,0.673-4.854  l5.646-5.646c0.303,2.031,1.406,6.262,5.459,9.877c0.219-0.16,0.446-0.271,0.661-0.478c0.72-0.699,1.343-1.5,2.059-2.307  c0.294,0.398,0.58,0.807,0.883,1.206c0.862,1.136,1.902,2.07,3.186,2.708c1.905,0.938,3.76,0.755,5.453-0.442  c1.101-0.777,2.062-1.756,3.151-2.709c0.192,0.233,0.437,0.536,0.681,0.833c0.909,1.104,1.998,1.986,3.309,2.555  c2.103,0.911,3.964,0.384,5.569-1.106c0.854-0.793,1.587-1.716,2.423-2.634c0.289,0.396,0.536,0.848,0.895,1.191  c0.851,0.83,1.669,1.733,2.653,2.371c1.616,1.046,3.291,0.902,4.738-0.379c0.921-0.815,1.654-1.838,2.468-2.77  c0.194-0.225,0.363-0.475,0.588-0.766c0.382,0.649,0.693,1.249,1.075,1.797c0.329,0.475,0.701,0.888,1.098,1.255  c4.361-3.683,5.528-8.112,5.843-10.205l5.647,5.647c-0.295,1.368,0.084,4.267,0.673,4.854l8.021,8.024  c0.711,0.708,1.855,0.708,2.563,0l4.01-4.011C98.147,65.179,98.147,64.031,97.442,63.324z"></path><path fill-rule="evenodd" clip-rule="evenodd" d="M76.531,63.277c-0.877,0.597-1.806,1.264-2.805,1.503  c-1.882,0.448-3.143-0.705-4.142-2.152c-0.382-0.548-0.693-1.147-1.075-1.797c-0.225,0.291-0.394,0.541-0.588,0.766  c-0.813,0.932-1.547,1.954-2.468,2.77c-1.447,1.282-3.122,1.425-4.738,0.379c-0.984-0.638-1.803-1.541-2.653-2.371  c-0.358-0.344-0.605-0.795-0.895-1.191c-0.836,0.918-1.569,1.841-2.423,2.634c-1.604,1.491-3.466,2.018-5.569,1.106  c-1.311-0.568-2.4-1.45-3.309-2.555c-0.245-0.297-0.489-0.6-0.681-0.833c-1.089,0.953-2.051,1.932-3.151,2.709  c-1.692,1.197-3.548,1.381-5.453,0.442c-1.284-0.638-2.324-1.572-3.186-2.708c-0.303-0.399-0.588-0.807-0.883-1.206  c-0.716,0.807-1.339,1.607-2.059,2.307c-1.788,1.725-3.769,1.847-5.781,0.385c-0.6-0.438-1.133-0.97-1.745-1.5  c-0.649,0.492-1.311,0.993-1.966,1.488c1.145,1.607,3.253,3.052,5.012,3.457c2.546,0.585,4.625-0.37,6.457-2.062  c1.792,1.719,3.772,2.919,6.248,3.015c2.493,0.1,4.521-1.014,6.332-2.583c4.045,3.504,8.318,3.629,12.063-0.026  c1.625,1.523,3.385,2.677,5.659,2.731c2.307,0.056,4.051-1.109,5.56-2.633c0.702,0.501,1.311,1.025,1.998,1.413  c3.306,1.853,7.15-0.012,9.605-3.282c-0.614-0.536-1.231-1.072-1.948-1.695C77.466,62.308,77.078,62.907,76.531,63.277z"></path></svg>