<svg xmlns:dc="http://purl.org/dc/elements/1.1/" xmlns:cc="http://creativecommons.org/ns#" xmlns:rdf="http://www.w3.org/1999/02/22-rdf-syntax-ns#" xmlns:svg="http://www.w3.org/2000/svg" xmlns="http://www.w3.org/2000/svg" xmlns:sodipodi="http://sodipodi.sourceforge.net/DTD/sodipodi-0.dtd" xmlns:inkscape="http://www.inkscape.org/namespaces/inkscape" version="1.1" x="0px" y="0px" viewBox="0 0 100 100" enable-background="new 0 0 100 100" xml:space="preserve"><path style="opacity:1;fill:#000000;fill-opacity:1;stroke:none" d="M 93.21875 0 L 81.15625 33.125 L 0 33.125 L 0 37.375 L 16.875 37.375 L 13.34375 54 C 9.8947357 52.483258 2.2003421 52.248404 0.875 59.5 L 0 64.25 L 10.1875 68.75 L 3.53125 100 L 16.46875 100 L 22 73.96875 L 80.90625 100 C 82.470188 99.9981 97.951303 99.9967 98.6875 100 L 100 97.3125 L 68.09375 81.34375 L 84.125 37.375 L 88.96875 37.375 L 88.96875 33.125 L 85.65625 33.125 L 97.1875 1.46875 L 93.21875 0 z M 29.78125 37.375 L 79.625 37.375 L 64.3125 79.4375 L 25.03125 59.75 L 29.78125 37.375 z "></path></svg>