<svg xmlns="http://www.w3.org/2000/svg" xmlns:xlink="http://www.w3.org/1999/xlink" version="1.1" x="0px" y="0px" viewBox="0 0 100 100" enable-background="new 0 0 100 100" xml:space="preserve"><g><path d="M55.527,18.283c5.032,0.747,9.701-2.714,10.448-7.738c0.747-5.023-2.715-9.697-7.752-10.444   c-5.02-0.747-9.697,2.724-10.439,7.739C47.037,12.866,50.508,17.537,55.527,18.283z"></path><path d="M64.818,54.233c0.055-0.354,0.118-0.702,0.118-1.068l0.191-19.526l6.883,4.714l4.499,12.88   c-0.1,0.126-0.245,0.201-0.337,0.335c-0.802,1.198-1.093,2.635-0.814,4.052l0.141,0.717l-5.11,1.007l5.384,31.907l23.073-4.536   L91.008,53.29l-4.915,0.964l-0.141-0.716c-0.383-1.96-1.845-3.484-3.662-4.076l-3.175-14.563c-0.241-0.881-0.792-1.646-1.548-2.163   L61.849,21.973c-0.031-0.023-0.059-0.041-0.091-0.062l-0.296-0.203l-0.019,0.025c-1.166-0.71-2.51-1.15-3.972-1.166   c-2.223-0.057-4.268,0.922-5.721,2.478l-0.014-0.012l-0.159,0.221c-0.314,0.36-0.597,0.747-0.838,1.161l-9.392,12.981   l-16.247,4.944l0.264,1.059c-2.387,0.556-4.204,2.603-4.204,5.158v0.729h-5.215l-1.248,34.271h23.52l-1.252-34.271h-5.01v-0.729   c0-0.48-0.155-0.913-0.273-1.357L44.614,44.6c0.888-0.226,1.671-0.751,2.209-1.496l2.692-3.726l-0.128,13.637   c-0.004,0.234,0.041,0.455,0.06,0.684l-7.356,19.336c-0.196,0.511-0.305,1.05-0.319,1.597l0.474,25.183L49.633,100l1.831-24.278   l4.787-12.575l1.745,12.479c0.068,0.46,0.195,0.904,0.382,1.328l11.573,22.324l6.377-2.876l-8.8-22.813L64.818,54.233z    M83.902,54.687l-6.208,1.221l-0.141-0.718c-0.155-0.785,0.009-1.573,0.428-2.252l4.085-1.144c0.843,0.431,1.499,1.195,1.694,2.178   L83.902,54.687z M29.721,48.558v0.729h-6.327v-0.729c0-1.515,1.089-2.722,2.505-3.034l0.684,2.706l2.951-0.597   C29.625,47.932,29.721,48.23,29.721,48.558z"></path><polygon points="19.833,46.048 14.795,42.86 1.154,63.046 13.046,70.466 13.902,47.162 19.5,47.162  "></polygon></g></svg>