<svg xmlns="http://www.w3.org/2000/svg" xmlns:xlink="http://www.w3.org/1999/xlink" version="1.1" x="0px" y="0px" viewBox="303.145 57.138 41.335 53.623" enable-background="new 303.145 57.138 41.335 53.623" xml:space="preserve"><g><path fill="#000000" d="M342.296,106.395h-1.128c-0.129-1.302-0.369-2.573-0.702-3.806c-1.214-4.503-3.659-8.495-6.41-11.57   c-2.471-2.764-5.187-4.789-7.479-5.776c0,0-0.874-0.639-0.874-1.307c0-0.667,0.874-1.3,0.874-1.3   c5.484-2.415,13.559-10.836,14.59-21.132h1.129c1.206,0,2.184-0.978,2.184-2.183c0-1.206-0.978-2.184-2.184-2.184h-36.968   c-1.206,0-2.184,0.978-2.184,2.184c0,1.205,0.978,2.183,2.184,2.183h1.128c1.021,10.306,9.02,18.731,14.56,21.138   c0,0,0.918,0.569,0.918,1.294s-0.887,1.327-0.887,1.327c-2.26,0.995-4.957,3.011-7.422,5.756c-2.763,3.075-5.23,7.067-6.458,11.57   c-0.336,1.233-0.579,2.504-0.709,3.806h-1.13c-1.206,0-2.184,0.978-2.184,2.183c0,1.206,0.978,2.184,2.184,2.184h36.968   c1.206,0,2.184-0.978,2.184-2.184C344.479,107.373,343.502,106.395,342.296,106.395z M337.216,106.477   c-0.154-1.381-0.319-2.142-0.665-3.888c-10.143,0.818-23.296-2.729-25.465,0c-0.305,1.421-0.519,2.507-0.675,3.888h-1.735   c0.089-1.408,0.254-2.697,0.483-3.888c0.66-3.427,1.862-6.02,3.401-8.163c0.872-1.215,1.844-2.364,2.861-3.407   c2.001-2.053,4.182-3.689,6.153-4.557l0.349-0.154l0.212-0.317c0,0,0.84-0.813,0.84-2s-0.893-2.106-0.893-2.106l-0.212-0.298   l-0.334-0.146c-2.979-1.294-6.434-4.342-9.013-7.954c-2.059-2.884-3.507-6.503-3.85-11.982h30.273   c-0.347,5.461-1.812,9.081-3.885,11.969c-2.587,3.604-6.041,6.655-9.014,7.964l-0.348,0.153l-0.212,0.314   c0,0-0.823,0.925-0.823,2.045s0.822,2.021,0.822,2.021l0.215,0.321l0.354,0.153c1.989,0.856,4.189,2.501,6.203,4.573   c1.004,1.032,1.962,2.17,2.822,3.372c1.536,2.147,2.733,4.749,3.389,8.198c0.226,1.19,0.388,2.479,0.476,3.888H337.216z"></path><path fill="#000000" d="M325.059,80.63l0.221-0.116l0.331-0.174c2.707-1.421,5.871-4.764,8.258-8.724   c0.711-1.181,1.141-2.056,1.802-3.771c-8.143,1.633-25.396-5.28-24.299-1.725c0.47,1.522,1.35,3.839,2.353,5.513   c2.377,3.968,5.538,7.305,8.25,8.708l0.319,0.166l0.213,0.109c0,0,0.643,0.335,1.173,1.595l0.134,0.402l0.112-0.402   C324.414,80.951,325.059,80.63,325.059,80.63z"></path></g></svg>