<?xml version="1.0" encoding="UTF-8" standalone="no"?>
<svg
   xmlns:dc="http://purl.org/dc/elements/1.1/"
   xmlns:cc="http://creativecommons.org/ns#"
   xmlns:rdf="http://www.w3.org/1999/02/22-rdf-syntax-ns#"
   xmlns:svg="http://www.w3.org/2000/svg"
   xmlns="http://www.w3.org/2000/svg"
   xmlns:sodipodi="http://sodipodi.sourceforge.net/DTD/sodipodi-0.dtd"
   xmlns:inkscape="http://www.inkscape.org/namespaces/inkscape"
   version="1.1"
   x="0px"
   y="0px"
   viewBox="0 0 100 100"
   enable-background="new 0 0 100 100"
   xml:space="preserve"
   id="svg2"
   inkscape:version="0.48.5 r10040"
   width="100%"
   height="100%"
   sodipodi:docname="ocean_noun_8624.svg"><metadata
     id="metadata128"><rdf:RDF><cc:Work
         rdf:about=""><dc:format>image/svg+xml</dc:format><dc:type
           rdf:resource="http://purl.org/dc/dcmitype/StillImage" /></cc:Work></rdf:RDF></metadata><defs
     id="defs126" /><sodipodi:namedview
     pagecolor="#ffffff"
     bordercolor="#666666"
     borderopacity="1"
     objecttolerance="10"
     gridtolerance="10"
     guidetolerance="10"
     inkscape:pageopacity="0"
     inkscape:pageshadow="2"
     inkscape:window-width="1392"
     inkscape:window-height="975"
     id="namedview124"
     showgrid="false"
     inkscape:zoom="2.36"
     inkscape:cx="50"
     inkscape:cy="50"
     inkscape:window-x="0"
     inkscape:window-y="0"
     inkscape:window-maximized="0"
     inkscape:current-layer="svg2" /><g
     id="g120"><path
       d="m 64.098,66.896 c 0.434,-0.698 0.688,-1.521 0.688,-2.404 0,-2.525 -2.047,-4.571 -4.572,-4.571 -2.525,0 -4.57,2.046 -4.57,4.571 0,0.36 0.044,0.709 0.124,1.045 -1.8,-0.163 -3.621,-0.25 -5.463,-0.25 -2.855,0 -5.663,0.207 -8.413,0.596 -2.967,-17.683 0.061,-28.945 4.496,-36.038 0.823,1.211 2.211,2.006 3.787,2.006 2.191,0 4.021,-1.543 4.466,-3.603 0.438,0.138 0.903,0.215 1.386,0.215 2.525,0 4.571,-2.048 4.571,-4.574 0,-0.071 -0.005,-0.14 -0.01,-0.209 0.847,0.528 1.706,1.111 2.541,1.755 3.712,2.86 6.916,6.797 6.912,11.852 0,1.225 -0.189,2.524 -0.605,3.905 -0.089,0.293 0.069,0.604 0.354,0.706 0.066,0.024 0.133,0.034 0.196,0.034 0.227,0 0.438,-0.134 0.528,-0.354 0.014,-0.037 1.874,-4.497 1.877,-9.811 0.002,-3.714 -0.924,-7.89 -4.116,-11.163 -0.807,-0.828 -1.754,-1.591 -2.86,-2.274 0.086,-10e-4 0.171,-0.002 0.259,-0.002 3.562,-10e-4 7.409,0.525 10.684,2.145 3.276,1.625 5.99,4.3 7.408,8.732 0.079,0.243 0.303,0.401 0.546,0.401 0.049,0 0.099,-0.007 0.148,-0.02 0.297,-0.08 0.479,-0.375 0.415,-0.675 -0.01,-0.036 -0.98,-4.616 -3.808,-9.244 -2.817,-4.614 -7.586,-9.338 -15.104,-9.336 -3.301,0 -7.1,0.914 -11.463,3.09 C 47.24,4.856 40.415,1.82 34.452,1.821 21.827,1.881 13.688,15.129 13.123,16.025 v 0.001 c -0.02,0.03 -0.029,0.046 -0.03,0.048 -0.156,0.263 -0.079,0.602 0.178,0.771 0.255,0.169 0.598,0.107 0.78,-0.139 3.866,-5.257 8.898,-6.992 14.059,-7.003 4.901,-0.002 9.885,1.619 13.821,3.375 -0.814,-0.093 -1.596,-0.14 -2.344,-0.14 -7.767,-0.012 -11.985,4.812 -14.124,9.505 -2.163,4.703 -2.397,9.343 -2.402,9.381 -0.015,0.306 0.211,0.57 0.516,0.602 0.019,0.002 0.039,0.003 0.058,0.003 0.281,0 0.524,-0.206 0.569,-0.489 0.825,-5.374 4.095,-8.364 8.06,-10.114 3.96,-1.734 8.59,-2.123 11.847,-2.121 0.38,0 0.741,0.005 1.08,0.015 C 30.067,32.614 31.94,63.264 32.335,68.049 19.057,72.24 7.786,80.946 0.327,92.373 c 1.628,-0.474 3.348,-0.741 5.112,-0.741 2.752,0 5.388,0.638 7.732,1.707 2.29,1.048 4.853,1.661 7.506,1.661 2.668,0 5.23,-0.613 7.519,-1.661 2.327,-1.071 4.972,-1.707 7.729,-1.707 2.745,0 5.391,0.638 7.731,1.707 2.28,1.048 4.826,1.661 7.498,1.661 2.67,0 5.224,-0.613 7.527,-1.661 2.334,-1.071 4.981,-1.707 7.709,-1.707 2.758,0 5.4,0.638 7.741,1.707 2.272,1.048 4.858,1.661 7.496,1.661 2.67,0 5.216,-0.613 7.527,-1.661 2.333,-1.071 4.973,-1.707 7.713,-1.707 1.053,0 2.088,0.095 3.098,0.27 C 91.725,79.536 78.991,70.427 64.098,66.896 z"
       id="path122"
       inkscape:connector-curvature="0"
       style="fill:#000000" /></g></svg>