<svg xmlns="http://www.w3.org/2000/svg" xmlns:xlink="http://www.w3.org/1999/xlink" version="1.1" x="0px" y="0px" viewBox="0 0 100 100" enable-background="new 0 0 100 100" xml:space="preserve"><g><path d="M5.001,86.547c3.597-0.07,6.032-2.043,7.33-3.492c1.322,1.475,3.815,3.506,7.524,3.506c3.708,0,6.201-2.031,7.524-3.506   c1.323,1.475,3.816,3.506,7.524,3.506s6.201-2.031,7.524-3.506c1.322,1.475,3.815,3.506,7.525,3.506   c3.708,0,6.202-2.029,7.522-3.506c1.322,1.477,3.816,3.506,7.525,3.506c3.707,0,6.203-2.029,7.525-3.506   c1.32,1.477,3.812,3.506,7.521,3.506s6.203-2.031,7.525-3.506c1.311,1.463,3.775,3.465,7.426,3.5v-3.891   c-4.062-0.059-6.219-3.559-6.305-3.701c-0.229-0.391-0.658-0.584-1.096-0.592l-0.027-0.053l-0.029,0.053   c-0.436,0.01-0.865,0.207-1.092,0.594c-0.023,0.037-2.229,3.705-6.402,3.705c-4.152,0-6.381-3.674-6.4-3.703   c-0.227-0.391-0.658-0.588-1.096-0.596l-0.029-0.053l-0.027,0.053c-0.438,0.01-0.867,0.205-1.094,0.594   c-0.02,0.037-2.225,3.705-6.398,3.705c-4.131,0-6.316-3.562-6.404-3.707c-0.227-0.391-0.658-0.584-1.094-0.592l-0.029-0.053   l-0.029,0.053c-0.438,0.01-0.869,0.207-1.092,0.596c-0.021,0.037-2.223,3.703-6.399,3.703c-4.15,0-6.384-3.674-6.403-3.707   c-0.226-0.389-0.658-0.582-1.095-0.59l-0.03-0.055l-0.03,0.055c-0.436,0.008-0.866,0.203-1.088,0.59   C41.288,79,39.076,82.67,34.905,82.67c-4.149,0-6.382-3.674-6.402-3.707c-0.216-0.371-0.646-0.559-1.083-0.568l-0.039-0.066   l-0.04,0.066c-0.437,0.01-0.866,0.197-1.08,0.564c-0.021,0.037-2.254,3.711-6.404,3.711c-4.155,0-6.381-3.67-6.402-3.707   c-0.226-0.389-0.658-0.582-1.094-0.59l-0.03-0.055l-0.03,0.053c-0.436,0.01-0.867,0.205-1.088,0.592   c-0.024,0.037-2.17,3.58-6.212,3.695V86.547z"></path><path d="M38.909,43.363c1.778-6.093,8.192-9.59,14.287-7.81c6.109,1.774,8.574,7.629,6.785,13.724   c-1.785,6.084-7.131,10.16-13.231,8.369C40.639,55.863,37.124,49.465,38.909,43.363z"></path><circle cx="27.551" cy="22.797" r="9.358"></circle><path d="M59.293,62.643c-1.471-0.771-7.125-1.724-11.959-2.461c-3.386-0.516-6.371-0.926-7.234-1.096   c-5.172-1.014-15.361-9.166-15.361-9.166s1.124-9.072,1.209-14.611c-0.279-0.032-0.535-0.086-0.795-0.135   c-2.696-0.213-5.116-1.401-6.901-3.22c-1.694,5.627-5.585,16.926-4.513,21.06c0.767,2.959,12.325,13.219,15.1,19.223l0.968,3.443   c1.245,0.99,3.012,1.908,5.313,1.908c5.017,0,7.524-4.354,7.524-4.354s2.508,4.354,7.525,4.354c5.018,0,7.522-4.354,7.522-4.354   s2.51,4.354,7.525,4.354c3.191,0,5.361-1.758,6.523-3.039C71.148,73.689,60.717,63.391,59.293,62.643z"></path></g></svg>