<svg xmlns="http://www.w3.org/2000/svg" xmlns:xlink="http://www.w3.org/1999/xlink" version="1.1" x="0px" y="0px" viewBox="0 0 100 100" enable-background="new 0 0 100 100" xml:space="preserve"><g><path d="M23.488,79.567c-1.063-0.485-2.319-0.019-2.805,1.044l-1.887,4.124c-0.486,1.063-0.02,2.319,1.044,2.805   c0.285,0.13,0.584,0.191,0.879,0.191c0.803,0,1.57-0.458,1.926-1.235l1.887-4.124C25.018,81.31,24.552,80.055,23.488,79.567z"></path><path d="M27.677,75.5l3.146-6.872c0.485-1.063,0.018-2.319-1.044-2.806c-1.063-0.485-2.319-0.018-2.805,1.044l-3.145,6.873   c-0.486,1.063-0.019,2.317,1.043,2.806c0.285,0.13,0.584,0.191,0.88,0.191C26.554,76.736,27.321,76.277,27.677,75.5z"></path><path d="M35.843,79.459c-1.052-0.506-2.317-0.064-2.824,0.989l-1.967,4.086c-0.507,1.053-0.065,2.317,0.988,2.824   c0.296,0.144,0.609,0.21,0.917,0.21c0.787,0,1.543-0.441,1.907-1.198l1.968-4.086C37.339,81.231,36.896,79.967,35.843,79.459z"></path><path d="M42.401,65.839c-1.053-0.505-2.317-0.063-2.824,0.99l-3.28,6.809c-0.507,1.054-0.064,2.318,0.989,2.825   c0.295,0.143,0.608,0.211,0.917,0.211c0.787,0,1.543-0.442,1.908-1.199l3.279-6.81C43.896,67.612,43.454,66.348,42.401,65.839z"></path><path d="M30.596,90.355c-1.053-0.508-2.317-0.064-2.825,0.987l-0.781,1.622c-0.507,1.054-0.064,2.319,0.989,2.825   c0.296,0.143,0.608,0.21,0.917,0.21c0.787,0,1.543-0.441,1.907-1.198l0.782-1.621C32.092,92.126,31.65,90.862,30.596,90.355z"></path><path d="M48.659,79.567c-1.062-0.485-2.318-0.019-2.804,1.044l-1.887,4.124c-0.487,1.063-0.019,2.319,1.044,2.805   c0.285,0.13,0.584,0.191,0.879,0.191c0.803,0,1.57-0.458,1.926-1.235l1.887-4.124C50.189,81.31,49.722,80.055,48.659,79.567z"></path><path d="M54.949,65.822c-1.063-0.485-2.318-0.018-2.805,1.044L49,73.739c-0.487,1.063-0.02,2.317,1.043,2.806   c0.285,0.13,0.584,0.191,0.879,0.191c0.803,0,1.57-0.459,1.926-1.236l3.146-6.872C56.479,67.564,56.012,66.309,54.949,65.822z"></path><path d="M67.535,65.822c-1.063-0.485-2.318-0.018-2.806,1.044l-3.145,6.873c-0.486,1.063-0.019,2.317,1.044,2.806   c0.285,0.13,0.584,0.191,0.879,0.191c0.803,0,1.57-0.459,1.927-1.236l3.144-6.872C69.065,67.564,68.597,66.309,67.535,65.822z"></path><path d="M61.245,79.567c-1.063-0.485-2.318-0.019-2.805,1.044l-1.887,4.124c-0.487,1.063-0.019,2.319,1.044,2.805   c0.284,0.13,0.584,0.191,0.879,0.191c0.803,0,1.57-0.458,1.926-1.235l1.887-4.124C62.774,81.31,62.308,80.055,61.245,79.567z"></path><path d="M79.566,65.822c-1.064-0.485-2.318-0.018-2.805,1.044l-3.146,6.873c-0.486,1.063-0.019,2.317,1.043,2.806   c0.286,0.13,0.586,0.191,0.881,0.191c0.802,0,1.569-0.459,1.925-1.236l3.145-6.872C81.097,67.564,80.629,66.309,79.566,65.822z"></path><path d="M73.275,79.567c-1.062-0.485-2.317-0.019-2.804,1.044l-1.887,4.124c-0.487,1.063-0.02,2.319,1.044,2.805   c0.285,0.13,0.584,0.191,0.879,0.191c0.803,0,1.569-0.458,1.926-1.235l1.887-4.124C74.807,81.31,74.339,80.055,73.275,79.567z"></path><path d="M78.375,34.487c-0.675,0-1.338,0.052-1.985,0.147c0.03-0.395,0.051-0.79,0.051-1.191c0-8.432-6.836-15.267-15.268-15.267   c-1.466,0-2.883,0.211-4.226,0.597C52,11.48,43.643,6.688,34.166,6.688c-15.194,0-27.511,12.317-27.511,27.511   c0,15.194,12.317,27.511,27.511,27.511h43.372c0.277,0.018,0.557,0.029,0.838,0.029C85.899,61.738,92,55.638,92,48.112   C92,40.589,85.899,34.487,78.375,34.487z"></path></g></svg>