<svg xmlns="http://www.w3.org/2000/svg" xmlns:xlink="http://www.w3.org/1999/xlink" version="1.1" x="0px" y="0px" viewBox="0 0 300 300" enable-background="new 0 0 300 300" xml:space="preserve"><g display="none"><g display="inline"><path fill-rule="evenodd" clip-rule="evenodd" d="M177.5,182.9h-44l-22,44h22l-22,66l66-77h-22L177.5,182.9z"></path><path d="M144.5,7.1c-36.4,0-65.9,29.6-65.9,65.9c0,36.3,29.6,65.9,65.9,65.9c36.4,0,65.9-29.6,65.9-65.9    C210.4,36.6,180.8,7.1,144.5,7.1z"></path><path d="M210.6,51c-30.3,0-54.9,24.6-54.9,54.9c0,30.3,24.6,54.9,54.9,54.9c30.3,0,54.9-24.6,54.9-54.9S240.9,51,210.6,51z"></path><path d="M78.6,73c-24.3,0-44.1,19.7-44.1,43.9s19.8,43.9,44.1,43.9c24.3,0,44.1-19.7,44.1-43.9S102.9,73,78.6,73z"></path><path fill-rule="evenodd" clip-rule="evenodd" d="M78.7,105.9h132v55h-132V105.9z"></path></g></g><g display="none"><g display="inline"><path fill-rule="evenodd" clip-rule="evenodd" d="M210.5,182.9h-44l-22,44h22l-22,66l66-77h-22L210.5,182.9z"></path><path d="M144.5,7.1c-36.4,0-65.9,29.6-65.9,65.9c0,36.3,29.6,65.9,65.9,65.9c36.4,0,65.9-29.6,65.9-65.9    C210.4,36.6,180.8,7.1,144.5,7.1z"></path><path d="M210.6,51c-30.3,0-54.9,24.6-54.9,54.9c0,30.3,24.6,54.9,54.9,54.9c30.3,0,54.9-24.6,54.9-54.9S240.9,51,210.6,51z"></path><path d="M78.6,73c-24.3,0-44.1,19.7-44.1,43.9s19.8,43.9,44.1,43.9c24.3,0,44.1-19.7,44.1-43.9S102.9,73,78.6,73z"></path><path fill-rule="evenodd" clip-rule="evenodd" d="M78.7,105.9h132v55h-132V105.9z"></path><path fill-rule="evenodd" clip-rule="evenodd" d="M117.4,184.4c4.9,3,6.6,9.6,3.8,14.7l-23.4,44.4c-2.8,5.2-9.2,6.9-14.1,3.9    c-4.9-3-6.6-9.6-3.8-14.7l23.4-44.4C106.1,183.2,112.4,181.4,117.4,184.4z"></path></g></g><g display="none"><g display="inline"><path fill-rule="evenodd" clip-rule="evenodd" d="M241.9,252.8v0.7h-121v-0.6c-18.7-2.6-33.2-18.5-33.2-37.9    c0-19.3,14.4-35.2,33.1-37.9c0-0.2-0.1-0.4-0.1-0.6c0-30.3,24.7-54.9,55-54.9c22.9,0,42.5,14.1,50.8,34c3.2-0.6,6.5-1,9.9-1    c27.3,0,49.4,22.2,49.4,49.4C285.7,229.3,266.5,250,241.9,252.8z M100.6,160.4c-10.8,5.1-19.8,13.2-25.9,23.3    c-5.5-8.5-8.8-18.5-8.8-29.4c0-30.3,24.7-55,55-55c9,0,17.4,2.4,25,6.3C123,115.3,105.9,135.7,100.6,160.4z M135.3,72.5    c-0.8,2.8-3.2,4.7-6,5c-0.9,0.1-1.8,0-2.7-0.3c-3.7-1.1-5.8-5.1-4.7-8.8l5-16.9c1.1-3.7,5-5.8,8.7-4.7c3.7,1.1,5.8,5.1,4.7,8.8    L135.3,72.5z M76.6,82.3c-0.8,0.5-1.7,0.7-2.6,0.8c-2.7,0.3-5.5-1.1-6.8-3.6L58.7,64c-1.8-3.4-0.6-7.7,2.8-9.5    c3.4-1.9,7.6-0.6,9.5,2.8l8.4,15.5C81.2,76.2,80,80.5,76.6,82.3z M47.1,180.7L31.6,189c-0.8,0.4-1.7,0.7-2.6,0.8    c-2.7,0.3-5.5-1.1-6.9-3.7c-1.8-3.4-0.5-7.7,2.8-9.5l15.5-8.4c3.4-1.8,7.6-0.5,9.4,2.9C51.8,174.6,50.5,178.8,47.1,180.7z     M38.8,126.2c-0.9,0.1-1.8,0-2.7-0.3l-16.9-5c-3.7-1.1-5.8-5-4.7-8.7c1.1-3.7,5-5.9,8.7-4.8l16.9,5c3.7,1.1,5.8,5,4.7,8.7    C44,124.1,41.6,126,38.8,126.2z"></path></g></g><g display="none"><g display="inline"><path fill-rule="evenodd" clip-rule="evenodd" d="M36,45.5c18,0,18,22,54.9,22c47.1,0,71.1-44,119.1-44s72,33,72,38.5    c0,7.4,0,16.5-18,16.5s-18-22-54-22c-48,0-72,44-120,44S18,67.5,18,62C18,54.6,18,45.5,36,45.5z"></path><path fill-rule="evenodd" clip-rule="evenodd" d="M36,133.5c18,0,18,22,54.9,22c47.1,0,71.1-44,119.1-44s72,33,72,38.5    c0,7.4,0,16.5-18,16.5s-18-22-54-22c-48,0-72,44-120,44s-72-33-72-38.5C18,142.6,18,133.5,36,133.5z"></path><path fill-rule="evenodd" clip-rule="evenodd" d="M36,221.5c18,0,18,22,54.9,22c47.1,0,71.1-44,119.1-44s72,33,72,38.5    c0,7.4,0,16.5-18,16.5s-18-22-54-22c-48,0-72,44-120,44s-72-33-72-38.5C18,230.6,18,221.5,36,221.5z"></path></g></g><g display="none"><g display="inline"><path d="M139,29.1c-39.4,0-71.5,32-71.5,71.4s32.1,71.4,71.5,71.4c39.4,0,71.5-32,71.5-71.4C210.5,61.1,178.4,29.1,139,29.1z"></path><path d="M216,84c-33.4,0-60.5,27.1-60.5,60.4c0,33.3,27.2,60.4,60.5,60.4s60.5-27.1,60.5-60.4S249.4,84,216,84z"></path><path d="M73,106c-27.3,0-49.5,22.2-49.5,49.4c0,27.2,22.2,49.4,49.5,49.4c27.3,0,49.5-22.2,49.5-49.4S100.3,106,73,106z"></path><path fill-rule="evenodd" clip-rule="evenodd" d="M67.5,138.9h143v66h-143V138.9z"></path><path fill-rule="evenodd" clip-rule="evenodd" d="M67.5,226.9c12.2,0,22,9.8,22,22c0,12.2-9.8,22-22,22s-22-9.8-22-22    C45.5,236.8,55.4,226.9,67.5,226.9z"></path><path fill-rule="evenodd" clip-rule="evenodd" d="M210.5,226.9c12.2,0,22,9.8,22,22c0,12.2-9.8,22-22,22c-12.2,0-22-9.8-22-22    C188.5,236.8,198.4,226.9,210.5,226.9z"></path><path fill-rule="evenodd" clip-rule="evenodd" d="M144.5,226.9c12.2,0,22,9.8,22,22c0,12.2-9.8,22-22,22c-12.2,0-22-9.8-22-22    C122.5,236.8,132.4,226.9,144.5,226.9z"></path></g></g><g display="none"><g display="inline"><path fill="none" d="M130,150.8l10.9,16.1h20.2l9.3-16.1l-9.8-17.1h-20.3L130,150.8z M138.4,280v-36.3l-20.3,11.4l-10.3-5.9v-12.8    l30.1-17.1v-23.9l-10.8,3l-11-14.3l-20.8,12v34.3l-11.4,7.1l-9.6-6.4v-23L42.5,226L29,220.3v-14.5l33.2-18.2l-20.8-10.5v-13.3    l11.8-6.5L83,175l20.7-12l-0.5-0.4L93,150.6l9.5-12.8l-20.6-12l-29.8,17.5L41,137.8v-13.2l20.2-11.3L29,95.7V81.3l12.4-6.4    l31.7,18.3V69.8l9.6-6.5l11.7,6.8l-0.1,35l21.3,12.2l10.9-13.7l11.3,1V80.8l-30.1-17.1V50.9l10.3-6l20.3,11.4V20.1l11.6-7.6    l11.7,7.6v36.2l21-11.6l10.6,7v11.4l-31.1,17.6v23.9l10.3-2l11,15l21.9-12V68.3l10.6-4.9l11.1,4.9v23.9l32.6-17.6l11.4,7V95    l-31.9,18.1l19.9,11.2v12.9l-10.3,5.7l-30.6-18.1L197,138.3l9.5,12.8l-10.1,12.1l21.8,11.4l30.6-17.1l9.8,7v12.3l-19.2,10.8    l30.6,18.2v14.3L257,226l-30-17.1v22.6l-10.8,6l-10.6-6v-34.4l-22.2-12.7l-11,12.9l-10.3-2v23.9l30.1,17.1v13.5l-10.4,5.2    l-20.2-11.4V280l-11.7,7.5L138.4,280z"></path></g><g display="inline"><path d="M130,150.8l10.9,16.1h20.2l9.3-16.1l-9.8-17.1h-20.3L130,150.8z M138.4,280v-36.3l-20.3,11.4l-10.3-5.9v-12.8l30.1-17.1    v-23.9l-10.8,3l-11-14.3l-20.8,12v34.3l-11.4,7.1l-9.6-6.4v-23L42.5,226L29,220.3v-14.5l33.2-18.2l-20.8-10.5v-13.3l11.8-6.5    L83,175l20.7-12l-0.5-0.4L93,150.6l9.5-12.8l-20.6-12l-29.8,17.5L41,137.8v-13.2l20.2-11.3L29,95.7V81.3l12.4-6.4l31.7,18.3V69.8    l9.6-6.5l11.7,6.8l-0.1,35l21.3,12.2l10.9-13.7l11.3,1V80.8l-30.1-17.1V50.9l10.3-6l20.3,11.4V20.1l11.6-7.6l11.7,7.6v36.2    l21-11.6l10.6,7v11.4l-31.1,17.6v23.9l10.3-2l11,15l21.9-12V68.3l10.6-4.9l11.1,4.9v23.9l32.6-17.6l11.4,7V95l-31.9,18.1    l19.9,11.2v12.9l-10.3,5.7l-30.6-18.1L197,138.3l9.5,12.8l-10.1,12.1l21.8,11.4l30.6-17.1l9.8,7v12.3l-19.2,10.8l30.6,18.2v14.3    L257,226l-30-17.1v22.6l-10.8,6l-10.6-6v-34.4l-22.2-12.7l-11,12.9l-10.3-2v23.9l30.1,17.1v13.5l-10.4,5.2l-20.2-11.4V280    l-11.7,7.5L138.4,280z"></path></g></g><g display="none"><g display="inline"><path d="M139,18.1c-39.4,0-71.5,32-71.5,71.4s32.1,71.4,71.5,71.4c39.4,0,71.5-32,71.5-71.4C210.5,50.1,178.4,18.1,139,18.1z"></path><path d="M216,73.1c-33.4,0-60.5,27.1-60.5,60.4c0,33.3,27.2,60.4,60.5,60.4s60.5-27.1,60.5-60.4S249.4,73.1,216,73.1z"></path><path d="M73,95c-27.3,0-49.5,22.2-49.5,49.4c0,27.2,22.2,49.4,49.5,49.4c27.3,0,49.5-22.2,49.5-49.4S100.3,95,73,95z"></path><path fill-rule="evenodd" clip-rule="evenodd" d="M67.5,127.9h143v66h-143V127.9z"></path><path fill-rule="evenodd" clip-rule="evenodd" d="M84.4,217.4c4.9,3,6.6,9.6,3.8,14.7l-23.4,44.4c-2.8,5.2-9.2,6.9-14.1,3.9    s-6.6-9.6-3.8-14.7l23.4-44.4C73.1,216.2,79.4,214.4,84.4,217.4z"></path><path fill-rule="evenodd" clip-rule="evenodd" d="M150.4,217.4c4.9,3,6.6,9.6,3.8,14.7l-23.4,44.4c-2.8,5.2-9.2,6.9-14.1,3.9    c-4.9-3-6.6-9.6-3.8-14.7l23.4-44.4C139.1,216.2,145.4,214.4,150.4,217.4z"></path><path fill-rule="evenodd" clip-rule="evenodd" d="M216.4,217.4c4.9,3,6.6,9.6,3.8,14.7l-23.4,44.4c-2.8,5.2-9.2,6.9-14.1,3.9    c-4.9-3-6.6-9.6-3.8-14.7l23.4-44.4C205.1,216.2,211.4,214.4,216.4,217.4z"></path></g></g><g display="none"><g display="inline"><path d="M139,28.9c-39.4,0-71.5,32-71.5,71.4s32.1,71.4,71.5,71.4c39.4,0,71.5-32,71.5-71.4C210.5,60.9,178.4,28.9,139,28.9z"></path><path d="M216,83.9c-33.4,0-60.5,27.1-60.5,60.4c0,33.3,27.2,60.4,60.5,60.4s60.5-27.1,60.5-60.4S249.4,83.9,216,83.9z"></path><path d="M73,105.9c-27.3,0-49.5,22.2-49.5,49.4c0,27.2,22.2,49.4,49.5,49.4c27.3,0,49.5-22.2,49.5-49.4S100.3,105.9,73,105.9z"></path><path fill-rule="evenodd" clip-rule="evenodd" d="M67.5,138.8h143v66h-143V138.8z"></path><path fill-rule="evenodd" clip-rule="evenodd" d="M107.4,227.5c3.9,2.3,5.3,7.3,3,11.2L93.9,267c-2.3,3.9-7.3,5.2-11.3,3    c-3.9-2.3-5.3-7.3-3-11.2l16.5-28.3C98.4,226.6,103.5,225.3,107.4,227.5z"></path><path fill-rule="evenodd" clip-rule="evenodd" d="M195.4,227.5c3.9,2.3,5.3,7.3,3,11.2L181.9,267c-2.3,3.9-7.3,5.2-11.3,3    c-3.9-2.3-5.3-7.3-3-11.2l16.5-28.3C186.4,226.6,191.5,225.3,195.4,227.5z"></path></g></g><g display="none"><g display="inline"><path d="M139,62.1c-39.4,0-71.5,32-71.5,71.4s32.1,71.4,71.5,71.4c39.4,0,71.5-32,71.5-71.4C210.5,94.1,178.4,62.1,139,62.1z"></path><path d="M216,117c-33.4,0-60.5,27.1-60.5,60.4c0,33.3,27.2,60.4,60.5,60.4s60.5-27.1,60.5-60.4S249.4,117,216,117z"></path><path d="M73,139c-27.3,0-49.5,22.2-49.5,49.4c0,27.2,22.2,49.4,49.5,49.4c27.3,0,49.5-22.2,49.5-49.4S100.3,139,73,139z"></path><path fill-rule="evenodd" clip-rule="evenodd" d="M67.5,171.9h143v66h-143V171.9z"></path></g></g><g><g><path d="M247.9,119.7c1.3,0,2.6-0.2,3.8-0.8l23.7-9.8c5.2-2.2,7.7-8.2,5.6-13.4c-2.1-5.3-8.1-7.8-13.3-5.6l-23.7,9.8    c-5.2,2.2-7.7,8.2-5.6,13.4C240.1,117.3,243.9,119.7,247.9,119.7z"></path><path d="M199.9,244c-2.2-5.2-8.1-7.7-13.3-5.5c-5.2,2.2-7.6,8.2-5.4,13.5l9.8,23.7c1.6,3.9,5.4,6.3,9.4,6.3c1.3,0,2.6-0.3,3.9-0.8    c5.2-2.2,7.6-8.2,5.4-13.5L199.9,244z"></path><path d="M150.1,73.1c-42.5,0-77,34.5-77,76.9c0,42.4,34.6,76.9,77,76.9c42.5,0,77-34.5,77-76.9C227.2,107.6,192.6,73.1,150.1,73.1    z"></path><path d="M113.4,238.5c-5.2-2.2-11.1,0.3-13.3,5.5l-9.8,23.7c-2.2,5.2,0.3,11.3,5.4,13.5c1.3,0.5,2.6,0.8,3.9,0.8    c4,0,7.7-2.4,9.4-6.3l9.8-23.7C121,246.7,118.6,240.7,113.4,238.5z"></path><path d="M275.5,190.9l-23.7-9.8c-5.2-2.2-11.1,0.4-13.3,5.6c-2.1,5.3,0.4,11.3,5.6,13.4l23.7,9.8c1.3,0.5,2.6,0.8,3.8,0.8    c4,0,7.8-2.4,9.4-6.4C283.2,199,280.7,193,275.5,190.9z"></path><path d="M186.6,61.5c1.3,0.5,2.6,0.8,3.9,0.8c4,0,7.7-2.4,9.4-6.3l9.8-23.7c2.2-5.2-0.3-11.3-5.4-13.5c-5.2-2.2-11.1,0.3-13.3,5.5    l-9.8,23.7C179,53.3,181.4,59.3,186.6,61.5z"></path><path d="M55.9,99.9l-23.7-9.8c-5.2-2.2-11.1,0.4-13.3,5.6s0.4,11.3,5.6,13.4l23.7,9.8c1.3,0.5,2.6,0.8,3.8,0.8    c4,0,7.8-2.4,9.4-6.4C63.6,108.1,61.1,102.1,55.9,99.9z"></path><path d="M100.1,56c1.6,3.9,5.4,6.3,9.4,6.3c1.3,0,2.6-0.3,3.9-0.8c5.2-2.2,7.6-8.2,5.4-13.5L109,24.3c-2.2-5.2-8.1-7.7-13.3-5.5    c-5.2,2.2-7.6,8.2-5.4,13.5L100.1,56z"></path><path d="M48.2,181l-23.7,9.8c-5.2,2.2-7.7,8.2-5.6,13.4c1.6,4,5.4,6.4,9.4,6.4c1.3,0,2.6-0.2,3.8-0.8l23.7-9.8    c5.2-2.2,7.7-8.2,5.6-13.4C59.4,181.4,53.4,178.9,48.2,181z"></path></g></g></svg>