<?xml version="1.0" encoding="UTF-8" standalone="no"?>
<svg
   xmlns:dc="http://purl.org/dc/elements/1.1/"
   xmlns:cc="http://creativecommons.org/ns#"
   xmlns:rdf="http://www.w3.org/1999/02/22-rdf-syntax-ns#"
   xmlns:svg="http://www.w3.org/2000/svg"
   xmlns="http://www.w3.org/2000/svg"
   xmlns:sodipodi="http://sodipodi.sourceforge.net/DTD/sodipodi-0.dtd"
   xmlns:inkscape="http://www.inkscape.org/namespaces/inkscape"
   version="1.1"
   x="0px"
   y="0px"
   viewBox="0 0 125 125"
   enable-background="new 0 0 100 100"
   xml:space="preserve"
   id="svg2"
   inkscape:version="0.48.5 r10040"
   width="100%"
   height="100%"
   sodipodi:docname="tree_noun_7612.svg"
   inkscape:export-filename="/Users/akumpf/Desktop/tree_noun_7612.png"
   inkscape:export-xdpi="180"
   inkscape:export-ydpi="180"><metadata
     id="metadata194"><rdf:RDF><cc:Work
         rdf:about=""><dc:format>image/svg+xml</dc:format><dc:type
           rdf:resource="http://purl.org/dc/dcmitype/StillImage" /><dc:title></dc:title></cc:Work></rdf:RDF></metadata><defs
     id="defs192" /><sodipodi:namedview
     pagecolor="#ffffff"
     bordercolor="#666666"
     borderopacity="1"
     objecttolerance="10"
     gridtolerance="10"
     guidetolerance="10"
     inkscape:pageopacity="0"
     inkscape:pageshadow="2"
     inkscape:window-width="2009"
     inkscape:window-height="1260"
     id="namedview190"
     showgrid="false"
     inkscape:zoom="6"
     inkscape:cx="73.087961"
     inkscape:cy="51.170455"
     inkscape:window-x="0"
     inkscape:window-y="0"
     inkscape:window-maximized="0"
     inkscape:current-layer="svg2"
     fit-margin-top="0"
     fit-margin-left="0"
     fit-margin-right="0"
     fit-margin-bottom="0" /><path
     style="fill:none"
     inkscape:connector-curvature="0"
     id="path134"
     d="m 48.337,75.938 c -0.166,0.046 -0.336,0.076 -0.503,0.093 -0.144,0.014 -0.281,0.016 -0.416,0.008 -0.016,0.21 -0.033,0.421 -0.063,0.63 -0.089,0.602 -0.386,1.125 -0.971,1.417 1.262,0.136 2.523,0.236 3.796,0.273 -0.222,-0.292 -0.417,-0.603 -0.612,-0.913 -0.349,-0.552 -0.773,-1.041 -1.231,-1.508 z" /><path
     style="fill:none"
     inkscape:connector-curvature="0"
     id="path136"
     d="m 69.79,103.652 c 1.056,0.453 2.217,0.64 3.298,1.03 -0.496,-0.458 -0.997,-0.909 -1.533,-1.312 -1.096,-0.825 -2.285,-1.204 -3.604,-1.428 0.104,0.283 0.213,0.566 0.322,0.849 0.488,0.313 0.975,0.628 1.517,0.861 z" /><path
     style="fill:none"
     inkscape:connector-curvature="0"
     id="path138"
     d="m 60.88,64.192 c 0.33,-0.814 0.931,-1.605 1.318,-2.292 0.573,-1.014 1.204,-2.035 1.808,-3.066 -0.05,0.073 -0.11,0.143 -0.199,0.201 -0.882,0.586 -1.797,0.251 -2.358,-0.505 -0.056,-0.073 -0.086,-0.146 -0.105,-0.219 -0.435,-0.087 -0.854,-0.282 -1.192,-0.561 -0.144,-0.115 -0.282,-0.257 -0.402,-0.411 -0.116,0.14 -0.22,0.293 -0.307,0.462 -0.333,0.629 -0.534,1.464 -0.826,2.08 0.258,0.475 0.531,0.944 0.802,1.418 0.54,0.948 0.908,1.959 1.461,2.893 z" /><path
     style="fill:none"
     inkscape:connector-curvature="0"
     id="path140"
     d="m 48.156,105.793 c 0.135,-0.008 0.269,-0.021 0.402,-0.028 2.539,-0.407 5.052,-0.965 7.567,-1.546 0.606,-0.59 1.086,-1.284 1.476,-2.025 -2.101,0.631 -4.312,0.813 -6.385,1.529 -1.261,0.435 -2.114,1.298 -3.06,2.07 z" /><path
     style="fill:none"
     inkscape:connector-curvature="0"
     id="path142"
     d="m 72.182,77.788 c 0.007,0.023 0.018,0.047 0.006,0.072 -0.008,0.016 0.101,0.031 0.092,0.047 -0.006,0.012 0.189,0.025 0.213,0.039 0,-0.004 0.004,-0.007 0.004,-0.011 -0.117,-0.029 -0.226,-0.074 -0.315,-0.147 z" /><polygon
     style="fill:none"
     id="polygon144"
     points="4.65,23.189 4.649,23.189 4.649,23.189 "
     transform="translate(12.5,12.5)" /><path
     style="fill:none"
     inkscape:connector-curvature="0"
     id="path146"
     d="m 43.66,75.338 c -0.733,-0.49 -1.464,-1.012 -2.341,-1.184 -0.355,-0.072 -0.72,-0.111 -1.086,-0.121 -0.097,-0.053 -0.192,-0.108 -0.28,-0.171 -0.374,-0.133 -0.706,-0.343 -0.954,-0.609 -0.825,-0.154 -1.639,-0.39 -2.421,-0.782 -0.104,-0.051 -0.199,-0.111 -0.301,-0.167 -0.484,0.43 -0.533,1.132 -0.158,1.624 0.096,0.127 0.199,0.247 0.307,0.366 -0.596,0.243 -1.182,0.581 -1.699,0.792 -0.052,0.021 -0.104,0.04 -0.155,0.06 -0.027,0.155 -0.066,0.311 -0.127,0.459 -0.007,0.171 -0.082,0.34 -0.22,0.465 -0.022,0.021 -0.05,0.037 -0.074,0.053 -0.005,0.015 -0.015,0.026 -0.021,0.041 0.565,0.216 1.165,0.363 1.807,0.414 1.643,0.13 3.186,-0.41 4.689,0.45 0.921,0.53 1.975,0.673 3.05,0.772 -0.293,-0.275 -0.493,-0.645 -0.537,-1.107 -0.051,-0.53 0.165,-1.012 0.521,-1.355 z" /><polygon
     style="fill:none"
     id="polygon148"
     points="60,65.427 59.996,65.436 60,65.437 "
     transform="translate(12.5,12.5)" /><path
     style="fill:none"
     inkscape:connector-curvature="0"
     id="path150"
     d="m 61.381,68.865 c -0.741,-1.235 -1.58,-2.461 -2.346,-3.684 -0.509,-0.813 -1.428,-3.097 -2.119,-4.625 -0.247,0.042 -0.503,0.045 -0.76,-0.009 -0.955,-0.204 -1.934,-1.02 -1.965,-1.945 -0.016,-0.44 0.094,-0.897 0.19,-1.345 -0.105,-0.1 -0.214,-0.196 -0.326,-0.283 -0.009,-0.007 -0.019,-0.012 -0.027,-0.02 -0.168,0.554 -0.298,1.141 -0.707,1.583 -0.894,0.964 -2.377,1.229 -3.661,0.825 -0.182,-0.058 -0.454,-0.288 -0.715,-0.481 0.177,0.201 0.324,0.424 0.428,0.665 0.392,0.908 -0.092,1.771 -0.899,2.281 0.096,-0.023 0.187,-0.045 0.262,-0.059 0.891,-0.165 1.83,0.03 2.56,0.507 0.809,0.53 1.35,1.489 1.27,2.385 0.571,-0.291 1.232,-0.445 1.877,-0.407 0.503,0.03 0.954,0.255 1.235,0.601 0.118,0.024 0.24,0.052 0.362,0.088 0.333,0.1 0.595,0.238 0.797,0.405 0.145,-0.086 0.313,-0.137 0.479,-0.137 0.226,0 0.446,0.083 0.605,0.23 0.095,0.084 0.154,0.18 0.193,0.281 0.018,0.019 0.035,0.038 0.053,0.055 0.332,0.302 0.332,0.808 0,1.11 -0.237,0.218 -0.593,0.275 -0.896,0.178 -0.177,0.477 -0.548,0.92 -1.052,1.209 0.24,0.206 0.46,0.454 0.636,0.727 0.2,-0.065 0.414,-0.094 0.62,-0.064 -0.021,-0.078 -0.036,-0.159 -0.039,-0.249 -0.012,-0.337 0.244,-0.626 0.575,-0.737 0.271,-0.186 0.671,-0.211 0.966,-0.054 0.419,0.226 0.521,0.694 0.307,1.074 -0.16,0.285 -0.373,0.481 -0.705,0.596 -0.051,0.016 -0.106,0.026 -0.163,0.03 0.001,0.002 0.003,0.003 0.004,0.005 0.155,0.143 0.257,0.337 0.245,0.543 -0.006,0.131 -0.034,0.248 -0.071,0.363 -0.003,0.023 -0.004,0.044 -0.008,0.067 -0.064,0.323 -0.291,0.552 -0.576,0.684 1.106,0.57 2.128,1.074 3.11,1.18 0.257,-0.352 0.548,-0.682 0.884,-0.978 -0.01,-0.072 -0.013,-0.149 -0.01,-0.23 0.037,-0.779 -0.215,-1.705 -0.613,-2.365 z" /><path
     style="fill:none"
     inkscape:connector-curvature="0"
     id="path152"
     d="m 72.12,73.873 c -0.173,0.054 -0.353,0.08 -0.544,0.109 -0.569,0.084 -0.763,-0.703 -0.359,-1.017 0.159,-0.123 0.322,-0.283 0.525,-0.316 0.084,-0.017 0.167,-0.149 0.252,-0.149 0.016,0 0.013,0 0.025,0 0.009,0 0.02,0.116 0.027,0.106 0.007,-0.007 0.014,0.117 0.02,0.11 0.041,-0.052 0.069,-0.116 0.081,-0.2 0.038,-0.274 0.054,-0.552 0.079,-0.827 C 72.089,71.588 71.933,71.5 71.914,71.5 h -0.013 c -0.34,0 -0.676,0.279 -1.007,0.395 -0.408,0.576 -1.045,1.105 -1.598,1.56 -1.046,0.856 -1.647,1.759 -2.007,2.992 -0.031,0.107 -0.058,0.216 -0.084,0.326 0.486,-0.184 0.99,-0.339 1.564,-0.423 0.982,-0.145 1.964,-0.195 2.95,-0.219 -0.23,-0.264 -0.223,-0.653 0.05,-0.896 0.129,-0.112 0.314,-0.178 0.483,-0.193 -0.025,-0.061 -0.029,-0.122 -0.051,-0.189 -0.097,-0.305 -0.111,-0.647 -0.081,-0.98 z" /><path
     style="fill:none"
     inkscape:connector-curvature="0"
     id="path154"
     d="m 73.256,67.227 c -1.3,-0.512 -3.088,-1.3 -2.182,-2.339 0.439,-0.505 1.205,-0.833 1.934,-1.192 0.305,-0.149 0.522,-0.311 0.696,-0.481 -0.214,-0.423 -0.271,-0.845 -0.184,-1.274 -0.138,-0.001 -0.276,-0.017 -0.417,-0.052 -0.191,-0.047 -0.362,-0.111 -0.521,-0.181 -0.596,0.607 -1.024,1.336 -1.428,2.062 -0.669,1.203 -1.254,2.448 -1.906,3.66 -0.44,0.818 -0.804,1.656 -1.132,2.503 1.314,-0.494 2.463,-0.217 3.882,-0.372 0.945,-0.101 1.902,-0.107 2.857,-0.051 -0.018,-0.393 0.076,-0.778 0.077,-1.178 0.003,-0.552 -0.991,-0.835 -1.676,-1.105 z" /><path
     style="fill:none"
     inkscape:connector-curvature="0"
     id="path156"
     d="m 69.202,63.391 c 0.214,-0.414 1.57,-2.377 1.79,-2.788 0.474,-0.883 0.01,-0.709 0.271,-0.927 0.011,-0.446 0.134,-0.915 0.352,-1.365 -0.073,-0.125 -0.154,-0.246 -0.245,-0.359 -0.732,0.468 -1.318,1.422 -2.009,1.887 -1.302,0.873 -3.024,0.789 -3.94,-0.462 -0.007,-0.01 -0.012,-0.021 -0.019,-0.032 -0.438,0.718 -0.887,1.431 -1.297,2.163 -0.348,0.62 -0.642,1.255 -1.007,1.869 -0.289,0.481 -1.032,1.393 -0.896,1.969 0.055,0.227 -0.009,0.422 -0.135,0.567 0.514,0.764 0.988,1.543 1.513,2.303 0.215,0.313 0.952,1.119 1.155,1.447 1.037,-1.729 1.475,-2.592 2.792,-4.182 0.129,-0.156 1.507,-1.987 1.675,-2.09 z" /><path
     style="fill:none"
     inkscape:connector-curvature="0"
     id="path158"
     d="m 58.813,74.126 c -0.703,-0.527 -1.816,-1.189 -2.973,-1.793 -0.525,0.211 -1.149,0.191 -1.814,-0.204 -0.206,-0.125 -0.397,-0.271 -0.569,-0.449 -0.057,0.086 -0.085,0.222 -0.098,0.346 0.167,0.21 0.312,0.43 0.359,0.511 0.383,0.7 0.169,1.433 -0.325,1.919 0.464,0.006 0.85,0.52 0.85,0.942 0,0.429 -0.391,1.103 -0.859,1.103 h -0.246 c -0.127,0 -0.247,-0.033 -0.358,-0.08 0.158,0.398 -0.016,0.918 -0.521,1.049 0.074,0.013 0.149,0.03 0.241,0.03 h -0.494 c 0.092,0 0.176,-0.012 0.252,-0.031 C 51.518,77.316 51.592,76.5 52.5,76.5 h -0.494 c 0.126,0 0.235,-0.575 0.334,-0.538 -0.037,-0.089 -0.062,-0.781 -0.062,-0.882 0,-0.044 0.006,-0.087 0.015,-0.132 -0.464,0.157 -0.97,0.209 -1.428,0.119 -0.326,-0.065 -0.624,-0.182 -0.892,-0.337 -0.109,0.145 -0.221,0.273 -0.326,0.396 0.254,0.258 0.497,0.522 0.707,0.802 0.505,0.671 0.877,1.415 1.441,2.049 0.219,0.243 0.537,0.448 0.893,0.628 2.018,0.762 4.188,1.252 6.045,2.308 0.023,0.013 0.044,0.027 0.066,0.04 -0.002,-0.218 -0.003,-0.436 -0.005,-0.653 -0.289,-2.051 -0.301,-4.102 0.038,-6.147 -0.007,-0.012 -0.013,-0.019 -0.019,-0.027 z" /><path
     inkscape:connector-curvature="0"
     id="path164"
     d="m 52.5,77.5 c -0.092,0 -0.167,-0.017 -0.242,-0.031 -0.076,0.019 -0.16,0.031 -0.252,0.031 H 52.5 z" /><rect
     id="rect166"
     height="0.011"
     width="0.0080000004"
     y="77.935997"
     x="72.492004" /><path
     inkscape:connector-curvature="0"
     id="path174"
     d="m 17.09,35.764 c 0.02,-0.025 0.04,-0.043 0.06,-0.074 -0.069,0 -0.076,0.039 -0.06,0.074 z" /><polygon
     id="polygon178"
     points="29.463,7.688 29.47,7.685 29.469,7.686 "
     transform="translate(12.5,12.5)" /><g
     id="g3996"
     style="fill:#ffffff"><path
       style="fill:#ffffff"
       sodipodi:nodetypes="ccccccccccccccccscscccccccccccccscccccccccccccccccccccccccccccccccccccscssccccccccccccccccsccccccccsccsccccccccccccccccccscccccscccccccccscscccssssccccccsscccccccccccccccccsccccccsscssccccccccsscccccccsccccccccccssccccccccccccccccccccccccccccccccccccccsccccccccccccccccccccccccccccccccccccccccccccccccccccccccsccccccccccccccccccscsccccccccccccscscccccccccccccccccccccccscccccccccccccccccscccccccccccccccccccccccccccccccccccccccccccccccccccccccccccccccccsccccccccccccccccccccscccccssscccccccccccccccccccccccccccccsccccccccccccccccccccccccccccccccccccccccccccccssccccssccccccccccccccccccccc"
       d="m 112.241,36.992 c -0.352,-0.811 -0.828,-1.445 -1.609,-1.974 -0.133,-0.09 -0.27,-0.17 -0.409,-0.245 0.124,-0.088 0.216,-0.211 0.268,-0.344 0.15,-0.136 -0.043,-0.372 -0.115,-0.562 1.021,-0.051 1.007,-1.355 -0.055,-1.355 0,0 -0.419,0.329 -0.428,0.661 -0.128,-0.099 -0.124,-0.176 -0.301,-0.224 -0.42,-0.112 -0.788,-0.028 -1.155,0.176 -0.459,0.255 -0.419,0.799 -0.092,1.084 -0.941,-0.103 -1.897,0.041 -2.785,0.413 -0.575,0.24 -1.001,0.623 -1.494,0.967 -0.048,0.033 -0.147,0.035 -0.194,0.03 -0.041,-0.003 -0.071,-0.004 -0.104,-0.006 -0.551,-0.939 -0.23,-1.965 -0.62,-2.937 -0.028,-0.073 -0.061,-0.144 -0.096,-0.213 0.207,-0.124 0.346,-0.333 0.346,-0.568 0,-0.218 -0.122,-0.414 -0.306,-0.538 -0.142,-0.165 -0.359,-0.274 -0.606,-0.274 -0.217,0 -0.416,0.087 -0.558,0.223 -0.674,-0.385 -1.511,-0.524 -2.331,-0.285 -0.038,0.011 -0.078,0.027 -0.116,0.041 0.012,-0.046 0.024,-0.09 0.031,-0.14 0.1,-0.661 -0.062,-1.244 -0.36,-1.793 0.019,-0.068 0.037,-0.137 0.054,-0.204 0.058,0.022 0.114,0.044 0.171,0.061 0.97,0.299 2.114,0.101 2.727,-0.672 0.085,-0.108 0.159,-0.224 0.22,-0.345 0.135,0.053 0.287,0.067 0.435,0.048 -0.038,0.21 0.029,0.435 0.209,0.595 0.237,0.21 0.529,0.357 0.876,0.272 0.391,-0.096 0.574,-0.416 0.575,-0.754 0.001,-0.373 -0.348,-0.682 -0.765,-0.682 -0.019,0 -0.036,0.003 -0.054,0.004 0.003,-0.003 0.007,-0.006 0.012,-0.009 0.302,-0.257 0.29,-0.706 0,-0.964 -0.299,-0.268 -0.781,-0.257 -1.082,0 -0.002,0.001 -0.004,0.004 -0.008,0.005 -0.009,0.006 -0.017,0.012 -0.027,0.018 -0.108,-0.461 -0.367,-0.887 -0.783,-1.188 -0.817,-0.59 -2.085,-0.786 -3.071,-0.439 -0.158,0.056 -0.275,0.143 -0.358,0.246 -1.175,-1.112 -3.06,-1.689 -4.727,-1.755 -0.055,-0.003 -0.113,0 -0.172,-0.001 -0.457,-0.605 -1.093,-1.178 -1.782,-1.635 -0.248,-0.406 -0.511,-0.776 -0.744,-1.086 -0.332,-0.441 -0.817,-0.85 -1.372,-1.191 0.095,-0.399 -0.047,-0.777 -0.326,-1.092 -0.005,-0.129 -0.012,-0.258 -0.016,-0.386 -0.058,-1.738 -1.45,-2.623 -2.901,-2.671 -0.33,-0.321 -0.927,-0.299 -1.238,0.032 -0.057,0.062 -0.107,0.125 -0.159,0.189 -0.936,0.343 -1.698,1.082 -1.87,2.212 -0.327,-0.051 -0.68,-0.064 -1.033,-0.037 -0.288,-0.007 -0.609,0.018 -0.967,0.078 -0.015,0.002 -0.031,0.008 -0.048,0.011 -1.081,-0.3 -2.288,-0.269 -3.521,-0.265 -0.177,-1.129 -0.757,-2.199 -1.926,-2.787 -1.943,-0.976 -3.981,-0.623 -5.591,0.677 -0.447,0.358 -0.871,0.734 -1.285,1.114 -0.668,-0.637 -1.535,-1.096 -2.562,-1.106 -2.37,-0.024 -4.055,1.859 -3.749,3.705 -0.842,-0.842 -2.04,-1.416 -3.259,-1.443 0.215,-0.212 0.249,-0.564 0.091,-0.805 -0.145,-0.248 -0.449,-0.484 -0.785,-0.452 -0.16,0.015 -0.312,0.034 -0.445,0.122 -0.007,0.003 -0.013,0.006 -0.018,0.008 -0.175,0.035 -0.326,0.121 -0.438,0.238 -0.265,0.148 -0.376,0.481 -0.297,0.739 0.062,0.201 0.233,0.366 0.445,0.448 -0.669,0.37 -1.206,1.01 -2.043,0.917 -0.162,-0.018 -0.322,-0.045 -0.48,-0.077 0.052,-0.09 0.083,-0.191 0.083,-0.299 0,-0.373 -0.349,-0.682 -0.766,-0.682 -0.338,0 -0.664,0.03 -0.925,0.244 -0.091,0.073 -0.158,0.171 -0.202,0.279 -0.185,-0.043 -0.368,-0.08 -0.56,-0.108 0.015,-0.01 0.027,-0.02 0.042,-0.029 0.301,-0.247 0.293,-0.717 0,-0.965 -0.456,-0.385 -1.139,-0.51 -1.71,-0.256 -0.296,0.133 -0.542,0.447 -0.52,0.751 0.014,0.213 0.094,0.409 0.239,0.57 -1.68,0.336 -3.23,1.339 -3.98,2.718 -0.104,-0.087 -0.232,-0.152 -0.379,-0.188 -0.009,-0.004 -0.016,-0.007 -0.025,-0.011 -0.075,-0.032 -0.15,-0.062 -0.229,-0.089 -0.219,-0.127 -0.472,-0.186 -0.743,-0.088 -0.347,0.124 -0.544,0.338 -0.706,0.627 -0.187,0.333 -0.104,0.736 0.274,0.934 0.153,0.08 0.344,0.104 0.521,0.077 0.01,0.335 0.255,0.664 0.738,0.664 0.014,0 0.025,-0.002 0.037,-0.002 -0.034,0.438 -0.05,0.876 -0.118,1.308 -0.117,0.142 -0.221,0.291 -0.291,0.467 -0.071,0.177 -0.087,0.358 -0.067,0.535 -0.045,0.018 -0.514,0.227 -0.725,0.288 -0.511,0.148 -1.115,0.38 -1.652,0.39 C 43.037,25.335 42.806,24.543 42.48,23.855 42.427,23.733 42.367,23.5 42.305,23.5 l 0.126,0 c 0.667,0 1.013,-0.749 0.541,-1.169 -0.193,-0.172 -0.388,-0.321 -0.647,-0.406 -0.194,-0.064 -0.419,-0.058 -0.623,-0.058 -0.143,0 -0.277,0.037 -0.392,0.1 -0.564,-0.684 -1.261,-1.266 -2.092,-1.585 0.038,-0.023 0.074,-0.05 0.11,-0.081 0.044,-0.04 0.081,-0.086 0.112,-0.135 0.065,-0.031 0.128,-0.07 0.18,-0.125 0.121,-0.13 0.238,-0.267 0.269,-0.442 0.008,-0.061 0.015,-0.108 0.02,-0.156 0.125,-0.251 0.101,-0.537 -0.144,-0.755 -0.231,-0.205 -0.645,-0.276 -0.928,-0.107 -0.126,0.077 -0.247,0.159 -0.366,0.243 -0.008,0.003 -0.015,0.008 -0.021,0.013 -0.02,0.012 -0.04,0.021 -0.061,0.032 -0.036,0.012 -0.076,0.026 -0.099,0.033 -0.3,0.09 -0.595,0.347 -0.561,0.658 0.021,0.199 0.076,0.425 0.255,0.566 -0.208,-0.008 -0.421,-0.002 -0.64,0.023 -1.299,0.146 -2.611,0.72 -3.196,1.815 -0.469,0.88 -0.396,1.808 -0.295,2.749 0.055,0.511 0.33,1.429 -0.526,1.349 -0.856,-0.08 -1.561,-1.102 -2.255,-1.497 -4.34,-2.471 -9.041,3.724 -6.09,6.835 -0.084,0.156 -0.168,0.312 -0.253,0.469 -0.028,-0.001 -0.427,-0.006 -0.456,-0.005 -0.136,0.005 -0.773,0.025 -0.773,0.046 l 0,-0.014 c 0,-0.131 0.344,-0.254 0.303,-0.368 0.125,-0.252 0.259,-0.562 0.033,-0.763 -0.271,-0.242 -0.606,-0.256 -0.904,-0.062 -0.256,0.004 -0.454,0.111 -0.596,0.329 -0.171,0.261 -0.095,0.629 0.152,0.837 0.021,0.048 0.059,0.094 0.096,0.141 0.1,0.128 0.215,0.245 0.338,0.356 -0.003,0.004 0.002,0.005 -0.002,0.007 -0.012,0.021 -0.018,0.041 -0.029,0.061 -0.088,-0.033 -0.183,-0.052 -0.284,-0.052 -0.064,0 -0.127,0.004 -0.186,0.01 -0.035,-0.005 -0.071,-0.01 -0.105,-0.01 -0.168,0 -0.325,0.052 -0.453,0.137 0.056,-0.137 0.06,-0.288 0.015,-0.428 0.021,-0.062 0.037,0.014 0.037,-0.054 -10e-4,-0.37 -0.35,-0.537 -0.768,-0.537 l -0.292,0 c -0.416,0 -0.355,0.024 -0.355,0.396 l 0,0.102 c 0,0.209 -0.119,0.385 0.047,0.535 0.088,0.077 0.074,0.156 0.163,0.235 0.266,0.238 0.642,0.258 0.938,0.065 -0.03,0.073 -0.075,0.15 -0.074,0.231 0,0.053 -0.007,0.103 -0.001,0.151 0.002,0.011 -0.054,0.022 -0.054,0.032 0.008,0.047 -0.019,0.093 -0.019,0.137 l 0,0.004 c 0,0.048 0.09,0.096 0.117,0.144 0.057,0.105 0.184,0.192 0.276,0.275 0.294,0.262 0.802,0.262 1.095,0 0.102,-0.09 0.171,-0.203 0.203,-0.319 0.022,-0.025 0.046,-0.052 0.066,-0.081 0.112,0.046 0.236,0.075 0.364,0.081 0.044,10e-4 0.084,-0.002 0.125,-0.008 -0.411,0.569 -0.892,1.087 -1.507,1.502 C 21.621,35.4 20.983,35.855 20.45,36.38 20.44,36.361 20.433,36.342 20.421,36.325 20.263,36.107 20,35.957 19.699,35.968 c -0.169,0.006 -0.339,0.04 -0.503,0.075 -0.397,0.087 -0.633,0.474 -0.54,0.819 -0.039,0.2 -0.021,0.404 0.081,0.586 -0.022,0 -0.044,-0.004 -0.066,0 -0.179,0.02 -0.356,0.035 -0.505,0.134 -0.016,0.008 -0.027,0.02 -0.044,0.03 -0.308,0.088 -0.538,0.345 -0.538,0.648 0,0.287 0.21,0.537 0.499,0.635 0.049,0.108 0.098,0.214 0.14,0.325 0.036,0.089 0.085,0.169 0.149,0.239 -0.051,0.146 -0.031,0.303 0.035,0.445 -0.112,0.054 -0.504,0.114 -0.59,0.185 -0.231,0.188 -0.48,0.43 -0.565,0.688 C 17.198,40.623 17.113,40.5 16.921,40.5 l -0.147,0 c -0.416,0 -0.765,0.129 -0.765,0.501 0.001,0.371 0.349,0.499 0.765,0.499 l 0.146,0 c 0.302,0 0.561,0.18 0.685,-0.048 0.001,0.05 0,0.27 0.005,0.321 0.028,0.267 0.207,0.62 0.482,0.727 0.02,0.215 0.087,0.468 0.208,0.667 0.051,0.188 0.133,0.385 0.249,0.545 -0.369,0.107 -0.853,0.239 -1.217,0.319 -1.738,0.386 -3.905,0.916 -4.491,2.649 -0.523,1.545 0.244,2.922 1.158,4.155 0.567,0.768 0.501,1.415 0.501,2.327 l 0,0.002 c 0,0.124 -0.377,0.282 -0.662,0.49 -1.334,0.977 -1.414,2.993 -0.485,4.257 0.285,0.39 0.712,0.756 1.133,1.058 -0.103,0.021 -0.177,0.038 -0.277,0.06 -0.404,0.087 -0.623,0.487 -0.518,0.836 -0.046,0.002 -0.085,0.007 -0.131,0.015 -0.247,0.045 -0.416,0.205 -0.525,0.395 -0.227,0.116 -0.378,0.325 -0.378,0.579 0,0.36 0.349,0.698 0.766,0.682 0.11,-0.004 0.22,-0.019 0.323,-0.047 0.28,0.082 0.579,0.045 0.801,-0.153 0.173,-0.153 0.271,-0.408 0.209,-0.625 0.014,-0.08 0.012,-0.16 -0.002,-0.24 0.017,0.025 0.031,0.053 0.05,0.079 0.275,0.383 0.825,0.439 1.201,0.138 -0.126,0.101 0.014,-0.007 0.04,-0.023 0.067,-0.046 0.136,-0.093 0.204,-0.14 0.066,-0.054 0.127,0.258 0.181,0.193 0.276,-0.13 0.557,-0.218 0.629,-0.218 l 0.037,0 c 0.77,0 1.371,-0.716 1.808,-1.139 0.161,0.056 0.323,-0.078 0.489,-0.028 0.995,0.301 2.009,0.423 2.885,0.958 0.271,0.164 0.531,0.285 0.76,0.495 -0.037,0.034 -0.07,0.041 -0.093,0.057 -0.009,0.006 -0.014,-0.002 -0.021,10e-4 -0.014,0.01 -0.033,0.015 -0.055,0.029 -0.112,0.069 -0.227,0.134 -0.341,0.201 -0.241,0.138 -0.485,0.272 -0.729,0.409 -1.197,0.671 -2.338,1.393 -2.905,2.578 -0.204,-0.18 -0.457,-0.309 -0.748,-0.356 -0.41,-0.067 -0.823,0.097 -0.941,0.476 -0.047,0.154 -0.022,0.327 0.055,0.479 -0.045,0.039 -0.088,0.084 -0.122,0.139 -0.198,0.299 -0.103,0.772 0.273,0.931 0.336,0.145 0.742,0.256 1.11,0.129 0.068,-0.023 0.136,-0.055 0.201,-0.088 0.244,1.078 1.053,2.112 1.921,2.774 0.044,0.035 0.091,0.067 0.137,0.099 -0.126,0.249 -0.21,0.512 -0.257,0.781 -0.1,-0.028 -0.205,-0.046 -0.313,-0.04 -0.377,0.016 -0.74,0.154 -1.022,0.374 -0.221,0.17 -0.4,0.48 -0.368,0.749 0.021,0.169 0.043,0.313 0.149,0.465 0.107,0.152 0.203,0.226 0.361,0.33 0.23,0.151 0.592,0.195 0.863,0.12 0.092,-0.025 0.18,-0.062 0.264,-0.105 0.092,-0.017 0.181,-0.043 0.264,-0.083 0.116,0.296 0.266,0.575 0.451,0.829 0.083,0.115 0.177,0.223 0.273,0.326 -0.122,0.201 -0.199,0.438 -0.209,0.716 -0.009,0.208 0.008,0.408 0.039,0.601 -0.223,0.696 -0.256,1.448 -0.115,2.095 0.007,0.031 0.019,0.061 0.027,0.095 -0.242,0.027 -0.425,0.144 -0.577,0.323 -0.044,0.04 -0.086,0.084 -0.121,0.137 -0.199,0.302 -0.1,0.771 0.274,0.934 0.068,0.029 0.136,0.053 0.203,0.071 0.134,0.091 0.301,0.148 0.473,0.148 0.24,0 0.488,-0.12 0.636,-0.297 0.983,0.782 2.532,1.029 3.773,0.619 0.926,-0.308 1.696,-0.867 2.265,-1.559 -0.015,0.093 -0.01,0.192 0.029,0.297 0.313,0.862 1.03,1.563 2.088,1.65 0.286,0.023 0.556,-0.006 0.81,-0.07 0.022,0.022 0.04,0.046 0.063,0.068 0.008,0.009 0.018,0.017 0.03,0.023 -0.291,0.109 -0.517,0.377 -0.497,0.665 0.024,0.363 0.26,0.674 0.621,0.846 0.474,0.228 1.015,-0.012 1.129,-0.45 0.011,-0.055 0.03,-0.108 0.053,-0.162 0.002,-0.006 0.007,-0.014 0.011,-0.021 0.111,-0.202 0.133,-0.422 0.029,-0.626 0.691,0.372 1.426,0.67 2.214,0.815 1.799,0.335 3.827,-0.354 5.403,0.582 1.439,0.854 3.389,0.741 5.051,0.945 1.914,0.234 3.826,0.415 5.762,0.427 0.048,0 0.091,-0.006 0.134,-0.012 0.13,0.056 0.264,0.109 0.396,0.162 2.337,0.951 3.931,1.729 6.032,3.086 0.332,0.215 1.02,0.911 1.386,1.157 0.006,0.214 0.012,0.429 0.018,0.643 -0.007,2.28 0.212,6.996 0.199,9.762 -0.008,1.336 -0.081,2.632 -0.225,3.929 -0.026,0.133 -0.053,0.265 -0.081,0.395 -0.155,0.699 -0.357,1.42 -0.627,2.123 -0.066,-0.005 -0.138,0.004 -0.212,0.031 -2.089,0.755 -1.208667,1.03733 -3.332667,1.64733 -0.854,0.246 -2.91,0.981 -4.277666,1.567 C 48.983,106.52133 47.298,106.898 46.179,107.412 c -0.019,0.009 -0.028,0.022 -0.045,0.033 -0.625,0.056 -1.249,0.117 -1.874,0.191 -0.14,0.017 -0.23,0.08 -0.291,0.162 -0.448,0.03 -0.897,0.059 -1.349,0.074 -0.363,0.012 -1.096333,0.587 -2.879667,1.02967 -3.053,0.124 -3.687333,0.32533 -6.716333,0.72933 -0.223,0.034 -0.343,-0.131 -0.377,0.869 l 54.222,0 c -0.036,-1 -0.175,-0.872 -0.464,-0.932 -1.592,-0.331 -3.169,-1.18 -4.81,-1.289 -0.6,-0.042 -1.192,-0.207 -1.783,-0.25 -0.078,-0.085 -0.185,-0.217 -0.321,-0.26 -1.195,-0.382 -2.439,-0.594 -3.648,-0.916 -0.297,-0.079 -0.539,-0.156 -0.784,-0.216 -1.122,-0.96 -3.571667,-1.21767 -4.785667,-2.06267 -1.18,-0.822 -1.169333,-1.98833 -2.570333,-2.18933 -0.031,-0.005 -0.056,0.002 -0.084,0.003 -0.239,-0.924 -0.293,-1.829 -0.364,-2.784 -0.175,-2.34 -0.581,-4.659 -0.818,-6.994 -0.055,-2.022 -0.151,-4.043 -0.118,-6.065 0.022,-1.573 0.16,-3.115 0.363,-4.678 0.089,-0.665 0.148,-1.342 0.235,-2.014 0.227,-0.104 0.454,-0.207 0.687,-0.302 0.772,-0.315 1.771,-0.397 2.61,-0.462 0.067,-0.005 0.286,-0.005 0.286,-0.01 0,0 0,0 0,0.002 0,0.33 -0.18,0.737 0.194,0.933 0.27,0.141 0.831,0.113 1.069,-0.063 0.273,-0.065 0.705,-0.261 0.729,-0.504 -0.023,-0.014 -0.219,-0.027 -0.213,-0.039 0.009,-0.016 -0.1,-0.031 -0.092,-0.047 0.012,-0.025 0.001,-0.049 -0.006,-0.072 0.09,0.073 0.198,0.118 0.314,0.147 0,-0.003 0.004,-0.006 0.004,-0.009 l 0,0.01 c 0.087,0.021 0.177,0.038 0.27,0.036 0.025,0.029 0.04,0.059 0.069,0.086 0.029,0.136 0.038,0.272 0.001,0.424 -0.131,0.556 0.536,1.151 1.147,0.788 0.399,-0.238 0.781,-0.478 1.11,-0.757 0.19,-0.053 0.376,-0.119 0.549,-0.208 -0.013,0.043 -0.018,0.09 -0.018,0.139 0.001,0.225 0.062,0.434 0.245,0.599 0.181,0.16 0.419,0.212 0.666,0.213 0.417,0 0.766,-0.311 0.766,-0.683 0,-0.218 -0.122,-0.412 -0.307,-0.536 -0.141,-0.166 -0.359,-0.276 -0.605,-0.276 -0.018,0 -0.036,0.006 -0.054,0.008 0.128,-0.145 0.267,-0.327 0.395,-0.521 0.215,-0.024 0.429,-0.05 0.643,-0.075 0.035,0.092 0.073,0.183 0.131,0.269 0.412,0.644 1.276,1.16 2.119,1.172 0.501,0.008 0.947,-0.181 1.232,-0.548 0.005,-0.009 0.006,-0.017 0.012,-0.022 0.747,0.08 1.529,-0.053 2.238,-0.377 0.494,-0.227 0.916,-0.564 1.238,-0.959 0.129,0.024 0.259,0.046 0.391,0.062 0.426,1.473 1.901,2.705 3.547,2.937 -0.08,0.122 -0.12,0.265 -0.12,0.427 -0.001,0.372 0.349,0.683 0.766,0.683 0.178,0 0.34,-0.059 0.47,-0.151 0.332,-0.074 0.587,-0.345 0.587,-0.66 0,-0.146 -0.057,-0.283 -0.146,-0.394 0.037,-0.011 0.075,-0.023 0.111,-0.034 0.263,0.281 0.673,0.426 1.091,0.449 0.164,0.023 0.331,0.014 0.488,-0.028 0.134,-0.022 0.265,-0.059 0.382,-0.104 0.384,-0.153 0.681,-0.563 0.643,-0.943 -0.046,-0.449 -0.299,-0.807 -0.63,-1.129 0.145,-0.353 0.234,-0.728 0.286,-1.103 0.047,-0.03 0.091,-0.058 0.137,-0.089 0.421,0.367 1.164,0.549 1.733,0.341 0.521,0.011 1.058,-0.085 1.455,-0.343 0.599,-0.388 0.924,-0.851 0.979,-1.52 0.03,-0.374 -0.142,-0.896 -0.383,-1.2 -0.311,-0.393 -0.758,-0.737 -1.283,-0.891 -0.043,-0.02 -0.091,-0.034 -0.139,-0.051 -0.073,-0.059 -0.152,-0.112 -0.236,-0.16 -0.015,-0.234 -0.06,-0.459 -0.114,-0.679 0.06,0.016 0.116,0.021 0.178,0.041 0.426,0.134 0.839,0.28 1.279,0.401 0.764,0.204 1.678,0.289 2.504,0.155 0.896,-0.141 1.773,-0.532 2.235,-1.028 0.296,0.212 0.74,0.201 1.012,-0.041 0.025,-0.022 0.046,-0.047 0.065,-0.071 0.184,-0.129 0.306,-0.329 0.306,-0.541 0,-0.248 -0.15,-0.455 -0.371,-0.572 0.323,-0.304 0.54,-0.695 0.608,-1.148 0.048,-0.086 0.092,-0.176 0.12,-0.273 0.18,-0.595 -0.107,-1.35 -0.753,-1.638 -0.144,-0.062 -0.278,-0.115 -0.415,-0.164 0.376,-0.374 0.522,-0.791 0.184,-1.248 -0.282,-0.381 -0.784,-0.657 -1.388,-0.861 -0.076,-0.247 -0.147,-0.492 -0.201,-0.729 -0.073,-0.312 -0.139,-0.618 -0.051,-0.813 0.019,-0.041 0.093,-0.176 0.133,-0.251 0.075,0.013 0.158,0.029 0.208,0.055 0.373,0.181 0.728,0.385 1.08,0.598 0.706,0.425 1.414,0.815 2.148,1.084 -0.164,0.11 -0.301,0.259 -0.397,0.423 -0.194,0.33 -0.098,0.739 0.275,0.934 0.347,0.181 0.854,0.084 1.047,-0.244 0.004,-0.009 0.011,-0.016 0.016,-0.023 0.226,-0.118 0.381,-0.33 0.381,-0.581 0,-0.063 -0.015,-0.125 -0.035,-0.187 0.691,0.086 1.413,0.032 2.185,-0.235 1.24,-0.43 2.453,-0.983 3.328,-1.902 0.716,-0.754 1.266,-1.993 0.821,-2.977 -0.23,-0.506 -0.493,-0.942 -0.926,-1.337 -0.084,-0.077 -0.242,-0.216 -0.376,-0.336 0.013,-0.101 0.021,-0.203 0.03,-0.305 0.006,-0.004 0.011,-0.008 0.019,-0.012 0.189,-0.127 0.394,-0.245 0.567,-0.389 1.897,-1.572 0.261,-3.725 -0.104,-5.619 0.273,-0.516 0.237,-1.144 -0.304,-1.577 -0.002,-0.42 -0.015,-0.842 -0.045,-1.262 -0.006,-0.085 -0.015,-0.169 -0.023,-0.252 0.271,-0.2 0.537,-0.405 0.787,-0.62 0.946,-0.816 1.124,-1.933 0.367,-2.92 -0.462,-0.604 -1.033,-1.153 -1.434,-1.793 -0.111,-0.146 -0.194,-0.304 -0.25,-0.474 -0.001,-0.036 -0.005,-0.067 -0.007,-0.095 0.193,-0.175 0.388,-0.344 0.572,-0.527 0.599,-0.591 0.841,-1.349 0.781,-2.138 -0.032,-0.416 -0.226,-0.774 -0.241,-1.107 0.096,0.016 0.192,0.025 0.289,0.024 0.96,-0.005 1.542,-0.68 1.626,-1.472 0.099,-0.904 0.446,-1.68 0.05,-2.59 z M 40.625,78.527 c -1.504,-0.86 -3.047,-0.32 -4.689,-0.45 -0.642,-0.051 -1.241,-0.198 -1.807,-0.414 0.007,-0.015 0.017,-0.026 0.021,-0.041 0.024,-0.016 0.052,-0.032 0.074,-0.053 0.138,-0.125 0.213,-0.294 0.22,-0.465 0.061,-0.148 0.1,-0.304 0.127,-0.459 0.051,-0.02 0.104,-0.038 0.155,-0.06 0.518,-0.211 1.104,-0.549 1.699,-0.792 -0.107,-0.119 -0.211,-0.239 -0.307,-0.366 -0.375,-0.492 -0.326,-1.194 0.158,-1.624 0.102,0.056 0.197,0.116 0.301,0.167 0.782,0.393 1.596,0.628 2.421,0.782 0.248,0.267 0.58,0.477 0.954,0.609 0.088,0.062 0.184,0.118 0.28,0.171 0.366,0.01 0.73,0.049 1.086,0.121 0.877,0.172 1.607,0.693 2.341,1.184 -0.356,0.343 -0.572,0.825 -0.522,1.354 0.044,0.463 0.244,0.832 0.537,1.107 C 42.6,79.2 41.546,79.058 40.625,78.527 z m 15.501,27.192 c -2.516,0.581 -3.861333,0.55567 -6.400333,0.96267 -0.134,0.008 -0.934667,0.771 -1.485334,1.19466 0.945,-0.771 6.549,-0.21833 7.811,-0.65333 5.655334,-2.29933 1.200667,-2.06467 3.301667,-2.69567 -1.557667,-0.34233 -2.621,0.60167 -3.227,1.19167 z m 13.179,0.0677 c 2.786,2.23633 3.287,-0.0627 3.783,0.39533 -1.081,-0.391 -2.242,-0.577 -3.298,-1.03 -0.542,-0.233 -1.029,-0.549 -1.518,-0.861 -0.109,-0.282 -0.218,-0.565 -0.322,-0.849 1.32,0.224 -1.824333,-1.31367 1.355,2.34467 z M 59.441,59.301 c 0.087,-0.169 0.19,-0.322 0.307,-0.462 0.12,0.154 0.259,0.296 0.402,0.411 0.339,0.279 0.758,0.474 1.192,0.561 0.02,0.073 0.05,0.146 0.105,0.219 0.562,0.756 1.477,1.091 2.358,0.505 0.089,-0.059 0.149,-0.128 0.199,-0.201 -0.604,1.032 -1.234,2.053 -1.808,3.066 -0.388,0.687 -0.988,1.479 -1.318,2.292 -0.553,-0.935 -0.921,-1.946 -1.463,-2.894 -0.271,-0.474 -0.544,-0.943 -0.802,-1.418 0.294,-0.615 0.495,-1.45 0.828,-2.079 z M 46.384,79.585 c 0.585,-0.292 0.882,-0.815 0.971,-1.417 0.03,-0.209 0.048,-0.42 0.063,-0.63 0.135,0.008 0.272,0.006 0.416,-0.008 0.167,-0.017 0.337,-0.047 0.503,-0.093 0.458,0.468 0.882,0.956 1.23,1.508 0.195,0.311 0.391,0.621 0.612,0.913 -1.272,-0.037 -2.533,-0.137 -3.795,-0.273 z m 12.411,2.214 c 0.002,0.218 0.003,0.436 0.005,0.653 -0.022,-0.013 -0.043,-0.027 -0.066,-0.04 -1.856,-1.056 -4.027,-1.546 -6.045,-2.308 -0.355,-0.18 -0.674,-0.385 -0.893,-0.628 -0.564,-0.634 -0.937,-1.378 -1.441,-2.049 -0.21,-0.279 -0.453,-0.544 -0.707,-0.802 0.105,-0.122 0.217,-0.251 0.326,-0.396 0.268,0.155 0.565,0.271 0.892,0.337 0.458,0.09 0.964,0.038 1.428,-0.119 -0.009,0.045 -0.015,0.088 -0.015,0.132 0,0.101 0.024,1.043 0.062,1.132 -0.1,-0.036 -0.209,0.789 -0.335,0.789 l 0.494,0 c -0.908,0 -0.982,0.566 -0.242,0.719 0.506,-0.131 0.68,-0.525 0.521,-0.924 0.112,0.047 0.232,0.205 0.359,0.205 l 0.246,0 c 0.469,0 0.859,-0.924 0.859,-1.353 0,-0.423 -0.386,-1.062 -0.85,-1.067 0.494,-0.486 0.708,-1.281 0.325,-1.981 -0.047,-0.081 -0.192,-0.332 -0.359,-0.542 0.013,-0.124 0.041,-0.275 0.098,-0.361 0.172,0.178 0.363,0.316 0.569,0.441 0.665,0.396 1.289,0.411 1.814,0.2 1.156,0.604 2.27,1.264 2.973,1.791 0.006,0.008 0.012,0.014 0.02,0.024 -0.339,2.046 -0.327,4.096 -0.038,6.147 z m 2.324,-7.86 c -0.982,-0.105 -2.004,-0.609 -3.11,-1.18 0.285,-0.132 0.512,-0.36 0.576,-0.684 0.004,-0.023 0.005,-0.044 0.008,-0.067 0.037,-0.115 0.065,-0.232 0.071,-0.363 0.012,-0.206 -0.09,-0.4 -0.245,-0.543 -10e-4,-0.002 -0.003,-0.003 -0.004,-0.005 0.057,-0.004 0.112,-0.015 0.163,-0.03 0.332,-0.114 0.545,-0.311 0.705,-0.596 0.215,-0.38 0.112,-0.849 -0.307,-1.074 -0.295,-0.157 -0.695,-0.132 -0.966,0.054 -0.331,0.111 -0.587,0.4 -0.575,0.737 0.003,0.09 0.019,0.171 0.039,0.249 -0.206,-0.029 -0.42,-10e-4 -0.62,0.064 -0.176,-0.272 -0.396,-0.521 -0.636,-0.727 0.504,-0.289 0.875,-0.732 1.052,-1.209 0.303,0.098 0.658,0.04 0.896,-0.178 0.332,-0.303 0.332,-0.809 0,-1.11 -0.018,-0.017 -0.035,-0.036 -0.053,-0.055 -0.039,-0.102 -0.099,-0.197 -0.193,-0.281 -0.159,-0.147 -0.38,-0.23 -0.605,-0.23 -0.165,0 -0.334,0.051 -0.479,0.137 -0.202,-0.167 -0.464,-0.306 -0.797,-0.405 -0.122,-0.036 -0.244,-0.063 -0.362,-0.088 -0.281,-0.346 -0.732,-0.57 -1.235,-0.601 -0.645,-0.038 -1.306,0.116 -1.877,0.407 0.08,-0.896 -0.461,-1.855 -1.27,-2.385 -0.729,-0.478 -1.669,-0.672 -2.56,-0.508 -0.075,0.014 -0.166,0.035 -0.262,0.059 0.808,-0.51 1.291,-1.374 0.899,-2.281 -0.104,-0.241 -0.251,-0.464 -0.428,-0.665 0.261,0.194 0.533,0.423 0.715,0.481 1.284,0.404 2.768,0.139 3.661,-0.825 0.409,-0.442 0.539,-1.029 0.707,-1.583 0.009,0.008 0.019,0.013 0.027,0.02 0.112,0.087 0.221,0.184 0.326,0.283 -0.097,0.448 -0.206,0.905 -0.19,1.345 0.031,0.925 1.01,1.741 1.965,1.945 0.257,0.055 0.513,0.052 0.76,0.009 0.691,1.527 1.61,3.811 2.119,4.625 0.766,1.223 1.604,2.448 2.346,3.684 0.398,0.66 0.65,1.586 0.612,2.366 -0.003,0.081 0,0.158 0.01,0.23 -0.335,0.297 -0.626,0.627 -0.883,0.978 z m 3.616,-2.778 c -0.203,-0.328 -0.94,-1.134 -1.155,-1.447 -0.524,-0.76 -0.999,-1.539 -1.513,-2.303 0.126,-0.146 0.189,-0.341 0.135,-0.567 -0.136,-0.576 0.607,-1.488 0.896,-1.969 0.365,-0.613 0.659,-1.249 1.007,-1.869 0.41,-0.732 0.858,-1.445 1.297,-2.163 0.007,0.011 0.012,0.022 0.019,0.032 0.916,1.251 2.639,1.335 3.94,0.462 0.69,-0.464 1.276,-1.418 2.009,-1.887 0.091,0.113 0.172,0.235 0.245,0.359 -0.218,0.451 -0.341,0.919 -0.352,1.365 -0.262,0.218 0.202,0.044 -0.271,0.927 -0.22,0.411 -1.576,2.374 -1.79,2.788 -0.168,0.104 -1.546,1.935 -1.675,2.089 -1.317,1.591 -1.755,2.454 -2.792,4.183 z m 7.036,5.573 c -0.272,0.243 -0.28,0.633 -0.05,0.896 -0.986,0.023 -1.968,0.074 -2.95,0.219 -0.574,0.084 -1.078,0.239 -1.564,0.423 0.026,-0.11 0.053,-0.219 0.084,-0.326 0.359,-1.233 0.961,-2.136 2.007,-2.992 0.553,-0.454 1.189,-0.733 1.598,-1.31 0.33,-0.115 0.666,-0.144 1.005,-0.144 l 0.013,0 c 0.019,0 0.175,-0.162 0.312,-0.061 -0.025,0.275 -0.041,0.428 -0.079,0.702 -0.012,0.084 -0.04,0.086 -0.081,0.138 -0.006,0.007 -0.013,0.102 -0.02,0.108 -0.007,0.01 -0.018,0.113 -0.026,0.113 -0.013,0 -0.01,0 -0.025,0 -0.085,0 -0.168,-0.118 -0.252,-0.101 -0.203,0.033 -0.366,0.068 -0.525,0.191 -0.403,0.313 -0.21,1.038 0.359,0.954 0.191,-0.029 0.371,-0.087 0.544,-0.141 -0.03,0.333 -0.016,0.659 0.083,0.963 0.021,0.067 0.025,0.121 0.051,0.182 -0.17,0.016 -0.356,0.074 -0.484,0.186 z m 3.084,-5.724 c -0.955,-0.057 -1.912,-0.05 -2.857,0.051 -1.419,0.155 -2.567,-0.122 -3.882,0.372 0.328,-0.847 0.691,-1.685 1.132,-2.503 0.652,-1.212 1.237,-2.457 1.906,-3.66 0.403,-0.726 0.832,-1.454 1.428,-2.062 0.159,0.07 0.33,0.133 0.521,0.181 0.141,0.035 0.279,0.051 0.417,0.052 -0.087,0.429 -0.03,0.851 0.184,1.274 -0.174,0.17 -0.392,0.331 -0.696,0.48 -0.729,0.359 -1.494,0.688 -1.934,1.192 -0.906,1.039 0.882,1.827 2.182,2.339 0.686,0.271 1.679,0.554 1.677,1.105 -0.001,0.4 -0.095,0.786 -0.078,1.179 z"
       id="path162"
       inkscape:connector-curvature="0" /><path
       style="fill:#ffffff"
       d="m 18.311,65.764 c -0.112,-0.2 -0.411,-0.354 -0.66,-0.338 -0.153,0.01 -0.354,0.031 -0.482,0.119 -0.008,0.005 -0.016,0.012 -0.022,0.016 -0.313,0.025 -0.588,0.222 -0.671,0.496 -0.088,0.281 0.049,0.633 0.351,0.769 0.142,0.065 0.266,0.14 0.422,0.184 0.042,0.012 0.089,0.02 0.136,0.025 0.083,0.029 0.173,0.047 0.268,0.047 0.082,0 0.162,-0.016 0.235,-0.038 0.234,-0.025 0.449,-0.148 0.571,-0.332 0.144,-0.22 0.124,-0.465 0,-0.688 -0.052,-0.087 -0.1,-0.173 -0.148,-0.26 z"
       id="path160"
       inkscape:connector-curvature="0" /><path
       style="fill:#ffffff"
       d="m 102.382,70.431 c -0.184,0.163 -0.248,0.387 -0.204,0.596 -0.014,0.047 -0.02,0.096 -0.02,0.146 0,0.353 0.349,0.708 0.765,0.682 0.158,-0.01 0.342,-0.027 0.473,-0.119 0.175,-0.118 0.329,-0.25 0.375,-0.451 0.073,-0.333 -0.053,-0.611 -0.306,-0.853 -0.284,-0.273 -0.795,-0.258 -1.083,-0.001 z"
       id="path168"
       inkscape:connector-curvature="0" /><path
       style="fill:#ffffff"
       d="m 104.673,29.975 c -0.414,0 -0.769,0.31 -0.765,0.681 0,0.047 0.005,0.099 0.013,0.148 -0.008,0.036 -0.013,0.073 -0.013,0.111 0,0.354 0.348,0.705 0.765,0.682 0.025,-0.001 0.05,-0.004 0.075,-0.005 0.135,0.018 0.274,0.012 0.397,-0.028 0.203,-0.065 0.354,-0.161 0.506,-0.296 0.243,-0.217 0.293,-0.562 0.12,-0.827 -0.13,-0.195 -0.394,-0.351 -0.656,-0.337 -0.125,-0.081 -0.276,-0.129 -0.442,-0.129 z"
       id="path170"
       inkscape:connector-curvature="0" /><path
       style="fill:#ffffff"
       d="m 104.527,25.481 h 0.292 c 0.417,0 0.766,-0.369 0.766,-0.74 0,-0.286 -0.188,-0.53 -0.447,-0.638 -0.041,-0.032 -0.084,-0.078 -0.134,-0.103 -0.165,-0.082 -0.288,-0.112 -0.477,-0.123 -0.416,-0.025 -0.765,0.325 -0.765,0.678 0,0.022 0.005,0.042 0.007,0.064 -0.002,0.022 -0.007,0.099 -0.007,0.122 0.001,0.372 0.348,0.74 0.765,0.74 z"
       id="path172"
       inkscape:connector-curvature="0" /><path
       style="fill:#ffffff"
       d="M 17.09,35.764 C 17.074,35.73 17.081,35.691 17.15,35.69 v 0 h 0 l -10e-4,0 c -0.019,0.03 -0.04,0.048 -0.059,0.074 0.014,0.028 0.041,0.053 0.065,0.045 0.29,0.131 0.641,0.168 0.89,-0.054 0.282,-0.251 0.312,-0.688 0,-0.935 -0.487,-0.387 -1.098,-0.325 -1.656,-0.092 -0.377,0.159 -0.472,0.525 -0.273,0.824 0.208,0.319 0.613,0.686 0.974,0.212 z"
       id="path176"
       inkscape:connector-curvature="0" /><path
       style="fill:#ffffff"
       d="m 41.969,20.186 c 0.007,-0.003 0.014,-0.006 0.019,-0.01 0.05,-0.002 0.102,-0.006 0.152,-0.006 0.416,0 0.765,-0.31 0.765,-0.682 0,-0.372 -0.349,-0.681 -0.765,-0.681 -0.418,0 -0.809,0.073 -1.124,0.329 -0.31,0.25 -0.285,0.711 0,0.964 0.262,0.236 0.652,0.25 0.953,0.086 z"
       id="path180"
       inkscape:connector-curvature="0" /><path
       style="fill:#ffffff"
       d="m 54.58,15.717 c 0.195,-0.064 0.344,-0.162 0.489,-0.292 0.296,-0.263 0.295,-0.702 0,-0.964 -0.099,-0.089 -0.222,-0.145 -0.352,-0.174 -0.299,-0.214 -0.746,-0.202 -1.021,0.044 -0.191,0.171 -0.334,0.366 -0.334,0.618 0,0.246 0.147,0.438 0.334,0.606 0.211,0.188 0.597,0.257 0.884,0.162 z"
       id="path182"
       inkscape:connector-curvature="0" /></g></svg>