<svg xmlns="http://www.w3.org/2000/svg" xmlns:xlink="http://www.w3.org/1999/xlink" version="1.1" x="0px" y="0px" viewBox="0 0 79.389 81.892" enable-background="new 0 0 79.389 81.892" xml:space="preserve"><path fill-rule="evenodd" clip-rule="evenodd" d="M3.631,48.27c1.092-0.079,2.173-0.143,3.24-0.186v-5.21h6.597v5.221  c6.839,0.304,13.127,1.562,18.789,3.92c0.034-2.305-0.276-3.947-1.198-5.221c-1.615-2.236-5.287-4.078-12.238-6.947  c-1.243-0.511-2.32-1.165-3.247-1.93c-3.384-2.798-4.812-7.047-4.934-11.652c-0.114-4.302,0.929-8.95,2.565-12.907  c1.103-2.677,2.481-5.066,3.962-6.856c2.105-2.544,4.502-4.297,7-5.338c2.714-1.126,5.526-1.413,8.213-0.956  c2.675,0.451,5.211,1.625,7.381,3.42c2.161,1.785,3.962,4.19,5.174,7.096l-0.599,0.25l17.912,54.489l0.905-0.297l2.984,9.056  l13.25,3.361v4.309H59.801v-4.309l1.58-0.864l-3.258-9.896l1.096-0.361l-17.838-54.26l-0.78,0.324  c-0.905-2.178-2.241-3.962-3.834-5.279c-1.535-1.27-3.307-2.098-5.158-2.411c-1.838-0.314-3.771-0.112-5.642,0.664  c-1.813,0.754-3.584,2.066-5.184,4c-1.198,1.444-2.326,3.415-3.245,5.641c-1.413,3.415-2.316,7.388-2.218,11.016  c0.088,3.325,1.031,6.315,3.244,8.143c0.589,0.488,1.267,0.903,2.039,1.221c7.781,3.208,11.991,5.401,14.256,8.542  c1.968,2.724,2.308,5.729,1.983,10.186c6.874,3.856,12.653,9.614,17.161,17.58l-3.004,8.563h-29.62  c2.144-2.46,3.442-5.674,3.442-9.189c0-7.728-6.265-13.996-13.992-13.996c-2.633,0-5.095,0.729-7.198,1.993V48.27L3.631,48.27z"></path><path fill-rule="evenodd" clip-rule="evenodd" d="M10.995,59.703C4.924,59.703,0,64.622,0,70.698c0,6.07,4.924,10.995,10.995,10.995  c6.07,0,10.991-4.925,10.991-10.995C21.986,64.622,17.065,59.703,10.995,59.703L10.995,59.703z M10.995,66.497  c-2.319,0-4.199,1.88-4.199,4.201c0,2.315,1.88,4.195,4.199,4.195c2.318,0,4.197-1.88,4.197-4.195  C15.192,68.377,13.313,66.497,10.995,66.497z"></path></svg>